<?xml version="1.0" standalone="no"?>
<!DOCTYPE svg PUBLIC "-//W3C//DTD SVG 20010904//EN"
 "http://www.w3.org/TR/2001/REC-SVG-20010904/DTD/svg10.dtd">
<svg version="1.0" xmlns="http://www.w3.org/2000/svg"
 width="565.000000pt" height="108.000000pt" viewBox="0 0 565.000000 108.000000"
 preserveAspectRatio="xMidYMid meet">

<g transform="translate(0.000000,108.000000) scale(0.100000,-0.100000)"
fill="#000000" stroke="none">
<path d="M18 1064 c-5 -4 -8 -243 -8 -531 l0 -524 148 3 147 3 3 398 2 397
156 0 c174 0 211 -10 257 -72 48 -65 51 -85 55 -415 l4 -313 144 0 144 0 0
318 c0 174 -5 345 -10 380 -31 188 -124 292 -302 338 -50 13 -135 17 -398 21
-184 3 -338 2 -342 -3z"/>
<path d="M1120 1063 c0 -5 20 -69 44 -143 24 -74 74 -229 111 -345 36 -116 93
-289 124 -385 l58 -175 213 0 214 0 67 205 c169 513 269 826 269 838 0 9 -34
12 -137 12 -76 0 -143 -4 -150 -8 -6 -4 -23 -46 -36 -92 -41 -141 -187 -632
-201 -675 -7 -22 -16 -40 -21 -40 -5 0 -44 124 -86 275 -70 245 -103 361 -142
495 l-12 40 -157 3 c-87 1 -158 -1 -158 -5z"/>
<path d="M2360 1060 c0 -5 0 -243 0 -527 l0 -518 142 0 143 0 0 525 0 525
-142 3 c-93 2 -143 -1 -143 -8z"/>
<path d="M2835 1058 c-3 -7 -4 -245 -3 -528 l3 -515 280 -3 c402 -4 494 13
602 111 93 86 133 205 133 402 0 126 -17 216 -54 296 -75 158 -190 221 -434
239 -204 15 -521 13 -527 -2z m519 -232 c76 -13 142 -61 179 -131 15 -29 22
-64 25 -131 6 -123 -14 -190 -72 -248 -59 -59 -113 -76 -248 -76 l-108 0 0
293 c0 162 2 296 4 298 6 6 174 2 220 -5z"/>
<path d="M3995 1058 c-3 -7 -4 -245 -3 -528 l3 -515 148 -3 147 -3 -2 528 -3
528 -143 3 c-108 2 -144 0 -147 -10z"/>
<path d="M4827 1053 c-3 -5 -25 -60 -50 -123 -50 -128 -282 -713 -328 -829
-16 -40 -29 -77 -29 -82 0 -5 64 -9 143 -9 l142 0 34 95 33 95 247 -2 246 -3
31 -90 31 -90 157 -3 c98 -1 156 1 156 7 0 6 -7 25 -15 43 -8 18 -94 233 -190
478 -97 245 -183 462 -192 483 l-16 37 -198 0 c-109 0 -200 -3 -202 -7z m287
-431 c47 -129 86 -235 86 -238 0 -2 -82 -4 -181 -4 -168 0 -181 1 -176 18 9
29 167 445 173 454 3 5 8 8 9 6 2 -2 42 -108 89 -236z"/>
</g>
</svg>
