<?xml version="1.0" standalone="no"?>
<!DOCTYPE svg PUBLIC "-//W3C//DTD SVG 20010904//EN"
 "http://www.w3.org/TR/2001/REC-SVG-20010904/DTD/svg10.dtd">
<svg version="1.0" xmlns="http://www.w3.org/2000/svg"
 width="2600.000000pt" height="500.000000pt" viewBox="0 0 2600.000000 500.000000"
 preserveAspectRatio="xMidYMid meet">

<g transform="translate(0.000000,500.000000) scale(0.100000,-0.100000)"
fill="#fff" stroke="none">
<path d="M16744 4039 c-73 -21 -84 -72 -84 -401 l0 -228 -115 0 -115 0 0 -120
0 -120 114 0 115 0 4 -892 c3 -806 5 -900 21 -967 44 -189 141 -289 307 -321
138 -27 353 -22 537 11 l62 11 0 93 0 92 -57 -14 c-32 -8 -105 -15 -163 -15
-161 -2 -214 28 -253 141 l-22 66 -3 898 -3 897 281 0 280 0 0 120 0 120 -280
0 -280 0 0 320 0 320 -157 -1 c-87 0 -172 -5 -189 -10z"/>
<path d="M1870 3799 c-479 -19 -781 -91 -1010 -240 -326 -213 -479 -592 -480
-1190 0 -343 50 -627 146 -829 107 -225 269 -368 526 -464 244 -92 752 -139
1268 -117 399 17 611 47 818 116 303 102 456 257 526 536 39 153 46 252 46
642 l0 368 -827 -3 -828 -3 -53 -24 c-61 -28 -107 -75 -122 -128 -6 -21 -13
-89 -17 -150 l-6 -113 538 0 538 0 -6 -172 c-10 -367 -101 -518 -357 -596
-112 -34 -234 -46 -450 -46 -362 0 -564 58 -705 200 -98 98 -145 207 -182 419
-22 127 -25 576 -5 700 38 227 88 349 189 456 108 114 248 171 508 205 210 28
828 8 1241 -41 191 -23 341 -59 427 -103 14 -7 8 262 -8 315 -29 97 -128 167
-278 198 -246 49 -985 83 -1437 64z"/>
<path d="M14265 3789 c-263 -15 -447 -49 -603 -109 -106 -41 -184 -93 -256
-171 -117 -126 -166 -285 -166 -542 0 -251 40 -379 154 -492 72 -71 150 -115
267 -148 142 -42 251 -49 869 -57 559 -7 588 -8 659 -29 101 -30 142 -53 188
-105 48 -54 71 -121 84 -240 15 -142 -10 -286 -65 -380 -37 -63 -127 -141
-209 -180 -155 -74 -303 -95 -727 -103 -597 -11 -969 36 -1167 146 l-53 29 0
-104 c0 -75 4 -114 15 -135 49 -93 235 -153 590 -189 163 -17 871 -24 1051
-11 546 40 842 182 979 472 62 132 70 180 70 409 0 185 -3 213 -24 287 -29
105 -76 184 -146 249 -72 67 -158 108 -280 132 -55 12 -113 24 -130 27 -16 4
-304 11 -640 15 -353 4 -638 12 -677 19 -156 25 -248 83 -300 188 -30 62 -33
74 -36 192 -8 259 56 385 242 476 141 70 340 95 741 95 575 0 1040 -64 1173
-160 l42 -30 0 103 c0 92 -3 108 -23 138 -28 42 -78 76 -131 90 -23 6 -69 21
-103 35 -120 47 -270 69 -583 84 -232 11 -612 11 -805 -1z"/>
<path d="M4879 3771 l-385 -6 -59 -30 c-66 -34 -96 -70 -123 -149 -16 -47 -17
-147 -20 -1323 l-3 -1273 401 0 400 0 2 488 3 487 785 0 c827 0 826 0 978 47
119 36 200 85 288 173 68 69 90 98 133 186 86 174 118 357 108 604 -8 176 -32
280 -95 399 -54 105 -151 210 -245 265 -77 46 -231 96 -347 115 -111 17 -1158
27 -1821 17z m1446 -445 c108 -30 178 -96 217 -201 29 -80 37 -305 15 -410
-33 -155 -115 -260 -237 -305 -65 -24 -66 -24 -625 -30 -430 -4 -565 -8 -582
-18 l-23 -13 0 443 c0 506 -2 494 80 536 l45 23 525 -4 c455 -3 533 -6 585
-21z"/>
<path d="M8038 3754 c-57 -17 -95 -60 -103 -117 -4 -23 -5 -449 -2 -947 4
-791 6 -916 21 -990 37 -188 86 -297 178 -396 180 -191 443 -279 954 -315 222
-15 751 -7 934 16 563 68 840 247 940 607 52 186 55 258 55 1183 0 969 5 903
-78 947 -41 22 -51 23 -384 26 l-343 3 0 -921 c0 -801 -2 -931 -16 -997 -56
-272 -224 -393 -592 -423 -138 -12 -286 -6 -427 15 -253 39 -368 138 -422 362
-15 60 -17 175 -20 1016 l-4 947 -322 -1 c-250 0 -332 -4 -369 -15z"/>
<path d="M19004 3430 c-156 -9 -323 -34 -413 -62 -353 -108 -542 -385 -590
-867 -14 -133 -14 -494 0 -619 33 -310 116 -518 264 -668 68 -68 97 -89 185
-133 121 -59 205 -82 386 -106 156 -21 529 -24 679 -6 321 39 525 130 650 289
177 225 251 588 225 1098 -15 290 -48 443 -134 619 -119 243 -306 373 -615
426 -104 18 -399 41 -476 37 -16 0 -89 -4 -161 -8z m475 -259 c241 -61 370
-195 435 -452 78 -306 70 -840 -16 -1109 -49 -156 -149 -281 -270 -339 -133
-63 -200 -75 -428 -75 -189 0 -212 2 -301 26 -129 35 -193 69 -264 142 -103
105 -165 256 -197 481 -17 120 -17 580 0 700 59 414 213 588 570 645 100 16
376 4 471 -19z"/>
<path d="M24379 3429 c-503 -29 -795 -179 -944 -484 -97 -198 -130 -398 -129
-790 0 -391 28 -580 112 -758 147 -311 390 -419 992 -442 198 -8 639 9 791 31
163 22 290 66 347 118 41 36 62 90 62 155 l0 59 -60 -19 c-180 -56 -865 -105
-1129 -80 -255 24 -389 70 -490 169 -71 71 -113 143 -144 252 -43 148 -52 244
-52 540 0 357 24 516 102 680 42 87 138 189 218 232 227 121 694 130 917 17
193 -97 288 -334 288 -715 l0 -93 -607 -3 c-587 -3 -609 -4 -642 -23 -40 -24
-71 -77 -71 -122 l0 -33 851 0 851 0 -5 293 c-3 230 -8 308 -21 367 -63 270
-176 429 -376 530 -144 73 -278 104 -510 120 -158 11 -153 11 -351 -1z"/>
<path d="M21610 3408 c-112 -10 -298 -46 -462 -90 l-118 -31 1 -1091 c0 -818
3 -1100 12 -1125 24 -68 48 -76 238 -79 l169 -3 0 1049 0 1049 58 26 c137 62
381 94 583 77 187 -16 273 -44 342 -114 37 -36 67 -109 67 -160 0 -17 3 -48 6
-68 l7 -38 200 0 200 0 -6 93 c-15 219 -85 342 -236 413 -74 36 -254 80 -379
93 -119 13 -543 12 -682 -1z"/>
</g>
</svg>
