<?xml version="1.0" standalone="no"?>
<!DOCTYPE svg PUBLIC "-//W3C//DTD SVG 20010904//EN"
 "http://www.w3.org/TR/2001/REC-SVG-20010904/DTD/svg10.dtd">
<svg version="1.0" xmlns="http://www.w3.org/2000/svg"
 width="1280.000000pt" height="306.000000pt" viewBox="0 0 1280.000000 306.000000"
 preserveAspectRatio="xMidYMid meet">

<g transform="translate(0.000000,306.000000) scale(0.100000,-0.100000)"
fill="#000000" stroke="none">
<path d="M10190 2645 l415 -415 682 0 683 0 0 -688 0 -687 415 -415 415 -415
0 1518 0 1517 -1512 0 -1513 0 415 -415z"/>
<path d="M1067 2853 c-3 -5 -242 -597 -532 -1318 -290 -721 -529 -1313 -532
-1318 -2 -4 154 -6 347 -5 l352 3 96 258 97 257 593 -2 594 -3 106 -257 106
-258 353 0 c194 0 353 2 353 5 0 3 -263 598 -584 1323 l-585 1317 -380 3
c-209 1 -382 -1 -384 -5z m607 -1149 c115 -277 206 -507 204 -509 -3 -3 -185
-4 -406 -3 l-400 3 191 508 c105 279 193 507 196 507 3 0 100 -228 215 -506z"/>
<path d="M3317 2853 c-4 -3 -7 -600 -7 -1325 l0 -1318 330 0 330 0 2 824 3
823 355 -413 354 -414 51 0 51 0 357 416 357 415 0 -825 0 -826 330 0 330 0
-2 1323 -3 1322 -282 3 -282 2 -108 -123 c-59 -68 -250 -289 -423 -490 -173
-201 -319 -366 -325 -366 -5 0 -176 194 -380 430 -203 237 -394 457 -423 490
l-54 59 -277 0 c-153 0 -281 -3 -284 -7z"/>
<path d="M6667 2853 c-4 -3 -7 -600 -7 -1325 l0 -1319 693 3 c671 4 696 5 816
27 174 32 308 73 437 135 144 69 218 120 326 224 236 227 358 542 358 922 0
386 -134 720 -383 957 -237 225 -553 348 -958 373 -182 11 -1272 14 -1282 3z
m1266 -498 c199 -30 342 -98 464 -221 59 -59 81 -92 121 -176 74 -153 87 -218
87 -428 0 -137 -4 -190 -19 -243 -93 -349 -325 -544 -696 -587 -47 -5 -194
-10 -327 -10 l-243 0 0 840 0 840 258 0 c175 0 288 -5 355 -15z"/>
<path d="M10173 1628 l-423 -423 0 -603 0 -602 598 0 597 0 430 430 430 430
-602 0 -603 0 -2 595 -3 595 -422 -422z"/>
</g>
</svg>
