<?xml version="1.0" standalone="no"?>
<!DOCTYPE svg PUBLIC "-//W3C//DTD SVG 20010904//EN"
 "http://www.w3.org/TR/2001/REC-SVG-20010904/DTD/svg10.dtd">
<svg version="1.0" xmlns="http://www.w3.org/2000/svg"
 width="2170.000000pt" height="1845.000000pt" viewBox="0 0 2170.000000 1845.000000"
 preserveAspectRatio="xMidYMid meet">

<g transform="translate(0.000000,1845.000000) scale(0.100000,-0.100000)"
fill="#fff" stroke="none">
<path d="M390 17936 l0 -346 700 0 700 0 0 -1229 0 -1229 -512 -5 c-660 -7
-679 -10 -813 -140 l-65 -62 -6 -1030 c-7 -1273 -2 -1383 73 -1466 54 -60 129
-98 214 -109 41 -5 307 -13 592 -16 l517 -7 0 -697 0 -698 -538 -5 c-590 -5
-595 -6 -714 -69 -152 -81 -151 -61 -145 -2213 3 -1175 7 -1600 16 -1660 19
-123 37 -156 119 -210 39 -26 87 -51 109 -56 34 -9 684 -27 1021 -28 l132 -1
0 -1575 0 -1575 345 0 345 0 0 1045 0 1045 353 0 354 0 6 -127 c4 -71 7 -265
7 -433 1 -327 11 -536 31 -616 10 -38 25 -61 69 -105 84 -82 105 -89 293 -99
269 -14 1774 -22 1940 -10 291 20 395 67 442 201 20 56 35 275 28 402 -3 53
-3 97 0 97 4 0 80 -43 169 -95 90 -52 252 -139 360 -192 143 -71 199 -104 202
-118 3 -11 10 -45 17 -75 10 -46 20 -64 64 -107 29 -28 68 -59 86 -69 42 -21
186 -33 422 -33 l178 -1 130 -40 c508 -156 1042 -255 1557 -290 199 -13 792
-13 997 0 337 22 726 77 1040 146 164 36 485 121 564 149 38 13 200 15 1387
15 l1344 0 88 44 c94 48 142 90 166 146 19 46 36 172 36 268 l0 77 1973 -1970
c2569 -2567 2493 -2492 2587 -2538 112 -55 199 -78 326 -84 139 -7 227 11 351
71 173 85 297 208 374 372 54 115 73 198 72 329 0 197 -51 334 -179 480 -146
167 -844 871 -2513 2540 -914 913 -1661 1663 -1661 1667 0 5 1023 8 2273 8
1251 0 2410 3 2576 7 l302 6 70 65 c39 36 88 91 110 123 l39 58 0 4323 c-1
4056 -9 5618 -28 5731 -11 61 -70 147 -134 194 l-50 36 -3416 5 -3417 5 -110
96 c-1098 958 -2451 1553 -3894 1711 -397 44 -1025 51 -1381 16 -1048 -104
-2024 -411 -2895 -910 -394 -227 -884 -579 -1191 -857 l-54 -49 -363 0 c-199
0 -749 3 -1223 7 l-861 6 -7 696 c-7 725 -18 1079 -36 1169 -15 79 -38 120
-89 158 -97 71 -44 68 -1058 72 l-913 3 0 -345z m9630 -1496 c393 -21 713 -72
1110 -180 1444 -391 2659 -1344 3385 -2653 357 -643 601 -1434 665 -2152 17
-199 24 -692 11 -900 -39 -667 -245 -1426 -557 -2061 -694 -1411 -1954 -2448
-3497 -2879 -511 -142 -957 -194 -1577 -182 -545 11 -901 64 -1396 207 -1773
512 -3148 1842 -3722 3601 -191 585 -272 1144 -259 1789 8 376 38 675 103
1015 185 968 703 1965 1388 2672 337 348 592 564 946 800 598 399 1214 661
1895 808 286 61 616 109 810 118 172 8 516 6 695 -3z m-5760 -975 c0 -3 -42
-58 -94 -123 -114 -142 -243 -318 -343 -469 l-75 -113 -274 0 -274 0 0 -345 0
-345 79 0 80 0 -54 -114 c-240 -507 -437 -1099 -544 -1632 -165 -820 -169
-1849 -10 -2698 111 -592 345 -1292 609 -1816 22 -44 40 -82 40 -85 0 -3 -45
-5 -100 -5 l-100 0 0 -345 0 -345 304 0 304 0 92 -132 c110 -157 248 -338 360
-472 44 -53 80 -98 80 -101 0 -3 -419 -5 -932 -5 l-931 0 7 4458 c3 2451 9
4508 13 4569 l6 113 526 3 c289 1 685 3 879 5 193 1 352 0 352 -3z m16560
-4570 l0 -4575 -2703 0 -2703 0 -59 63 c-33 34 -75 79 -94 99 l-34 37 120 163
c66 90 155 214 198 276 71 104 79 113 104 108 114 -23 229 -30 501 -30 445 0
695 24 977 94 965 238 1810 835 2346 1656 543 832 745 1863 556 2834 -167 855
-616 1638 -1258 2193 -488 421 -1105 730 -1731 866 -243 54 -383 65 -805 65
-209 1 -421 -3 -472 -7 l-92 -8 -99 148 c-110 165 -245 348 -364 496 l-79 97
2846 0 2845 0 0 -4575z m-19030 2820 l0 -705 -355 0 -355 0 0 705 0 705 355 0
355 0 0 -705z m14815 320 c173 -20 389 -64 543 -112 64 -19 125 -38 135 -40 9
-3 17 -8 17 -12 0 -3 -74 -43 -164 -89 -260 -130 -474 -281 -659 -464 -48 -48
-90 -82 -92 -75 -60 180 -191 503 -289 711 -25 54 -46 101 -46 104 0 10 417
-8 555 -23z m1656 -717 c104 -75 408 -393 512 -536 93 -127 307 -488 307 -516
0 -12 -60 2 -214 49 -316 98 -388 109 -721 108 -502 0 -718 -55 -1095 -282
l-83 -50 -61 31 c-33 17 -103 48 -155 69 -136 54 -139 75 -47 264 154 314 448
576 831 740 192 82 475 152 621 154 53 1 67 -3 105 -31z m104 -1603 c133 -20
212 -41 320 -82 214 -83 450 -216 618 -347 l87 -69 0 -241 c0 -387 -18 -558
-91 -851 -37 -150 -79 -285 -89 -285 -4 0 -31 44 -60 98 -157 289 -205 366
-315 507 -260 332 -617 584 -997 705 -233 74 -218 65 -258 146 -59 119 -105
253 -94 272 23 40 249 128 389 151 86 15 382 12 490 -4z m-1511 -517 c59 -116
80 -211 74 -342 -7 -146 -57 -281 -147 -396 -19 -24 -20 -22 -18 428 l1 453
23 -28 c13 -15 43 -67 67 -115z m886 -753 c181 -82 302 -168 443 -314 215
-225 372 -534 456 -902 54 -238 52 -304 -11 -397 -136 -199 -621 -585 -944
-751 -78 -41 -79 -41 -82 -18 -2 13 16 81 38 153 96 301 132 515 132 784 0
198 -18 352 -63 527 -39 155 -85 269 -185 463 -63 121 -84 172 -80 190 2 15
30 82 60 151 31 69 56 131 56 137 0 19 31 30 64 22 17 -4 69 -24 116 -45z
m-16137 -262 l187 -6 0 -1399 0 -1398 -355 0 -355 0 0 1268 c0 698 3 1330 7
1405 l6 137 161 0 c89 0 245 -3 349 -7z m15336 -591 c16 -32 46 -105 66 -163
31 -88 38 -125 46 -244 13 -165 4 -440 -17 -543 -50 -244 -263 -656 -441 -851
l-59 -64 -257 0 c-142 0 -260 2 -262 5 -3 2 35 90 84 194 217 464 387 958 501
1458 21 92 41 170 43 172 8 8 233 92 249 93 12 1 28 -19 47 -57z m-11749
-4094 l123 -103 -7 -190 c-4 -104 -9 -211 -13 -237 l-6 -48 -688 0 -689 0 0
340 0 340 578 0 579 0 123 -102z m8930 -333 l0 -245 -351 0 -351 0 163 109
c90 59 247 170 349 245 102 75 186 136 187 136 2 0 3 -110 3 -245z"/>
<path d="M9410 13069 c-515 -37 -810 -154 -1005 -401 -125 -158 -215 -374
-255 -608 -63 -375 -45 -900 42 -1225 68 -254 203 -454 393 -581 221 -146 449
-201 885 -211 355 -9 695 27 895 92 419 138 656 453 740 985 11 70 19 195 22
375 7 389 -20 616 -102 863 -135 403 -388 602 -866 681 -230 38 -489 48 -749
30z m430 -401 c207 -49 318 -163 385 -395 108 -368 106 -1094 -2 -1438 -37
-116 -78 -191 -141 -257 -101 -106 -231 -148 -456 -148 -218 0 -341 37 -442
132 -136 128 -199 338 -225 743 -20 329 4 730 57 933 76 293 224 424 506 451
110 11 215 4 318 -21z"/>
<path d="M7065 13003 c-332 -39 -516 -89 -646 -176 -28 -19 -473 -411 -989
-873 l-939 -839 -1 -212 0 -213 1005 0 1005 0 0 -300 0 -300 385 0 385 0 0
300 0 300 240 0 240 0 0 220 0 220 -240 0 -240 0 2 940 3 940 -90 -1 c-49 -1
-103 -4 -120 -6z m-575 -1298 l0 -575 -567 0 -568 -1 528 533 c290 293 544
552 563 576 20 23 38 42 40 42 2 0 4 -259 4 -575z"/>
<path d="M14000 13004 c-14 -3 -77 -11 -140 -20 -215 -29 -375 -78 -490 -152
-32 -20 -482 -415 -999 -877 l-940 -840 0 -212 -1 -213 1005 0 1005 0 0 -300
0 -300 385 0 385 0 0 300 0 300 240 0 240 0 0 220 0 220 -240 0 -240 0 2 940
3 940 -95 -1 c-52 -1 -106 -3 -120 -5z m-570 -1299 l0 -575 -567 0 -568 -1
562 568 c309 312 563 571 563 576 0 4 2 7 5 7 3 0 5 -259 5 -575z"/>
<path d="M8447 9353 c-4 -3 -7 -37 -7 -75 l0 -68 -30 0 c-29 0 -30 -2 -30 -44
0 -41 2 -45 28 -48 l27 -3 5 -210 c6 -231 9 -247 65 -271 35 -14 148 -19 204
-8 26 5 31 11 31 35 0 27 -2 28 -52 31 -75 4 -78 12 -78 241 l0 187 70 0 70 0
0 45 0 45 -70 0 -70 0 0 75 0 75 -78 0 c-43 0 -82 -3 -85 -7z"/>
<path d="M9351 9347 c-44 -22 -63 -60 -69 -136 -4 -67 -6 -71 -28 -71 -22 0
-24 -4 -24 -45 0 -41 2 -45 25 -45 l25 0 0 -195 c0 -237 -1 -235 110 -235 l70
0 0 215 0 215 95 0 95 0 0 45 0 45 -95 0 -95 0 0 48 c0 75 18 86 130 80 l90
-4 0 42 0 41 -46 7 c-80 11 -257 7 -283 -7z"/>
<path d="M12440 9274 c0 -77 -2 -85 -17 -80 -10 4 -60 10 -113 13 -128 8 -200
-8 -250 -54 -59 -52 -75 -106 -75 -243 1 -245 48 -285 325 -285 134 1 150 3
195 25 37 19 57 37 75 70 25 45 25 47 28 343 l3 297 -85 0 -86 0 0 -86z m0
-314 c0 -177 -10 -213 -64 -235 -20 -8 -55 -15 -80 -15 -109 0 -136 39 -136
193 0 180 23 206 188 207 l92 0 0 -150z"/>
<path d="M6770 9293 c-51 -10 -50 -4 -50 -349 l0 -324 70 0 70 0 0 252 0 251
28 -40 c15 -22 99 -136 187 -252 l160 -212 108 3 c94 3 111 6 123 23 11 15 14
79 14 337 l0 318 -70 0 -70 0 0 -246 0 -246 -186 246 -187 246 -86 -1 c-47 -1
-97 -4 -111 -6z"/>
<path d="M7802 9195 c-69 -19 -95 -39 -129 -100 -24 -44 -28 -63 -31 -156 -7
-186 35 -270 152 -304 88 -26 314 -18 373 13 83 43 118 137 111 291 -7 139
-37 199 -123 244 -33 17 -61 21 -170 24 -92 2 -145 -1 -183 -12z m246 -91 c39
-26 52 -73 52 -191 0 -127 -15 -168 -70 -195 -64 -32 -152 -15 -185 35 -43 66
-41 267 3 326 37 50 142 63 200 25z"/>
<path d="M9913 9200 c-84 -18 -119 -46 -154 -125 -19 -41 -23 -68 -23 -155 0
-154 31 -227 117 -272 36 -19 62 -23 172 -26 162 -5 223 7 275 55 55 49 75
113 74 238 0 153 -35 229 -123 268 -37 17 -70 21 -171 23 -69 2 -144 -1 -167
-6z m231 -95 c40 -26 51 -69 51 -195 0 -92 -4 -122 -18 -148 -31 -57 -123 -79
-192 -46 -46 21 -67 72 -73 168 -10 175 41 253 160 241 26 -2 58 -11 72 -20z"/>
<path d="M10522 9199 l-23 -9 3 -233 c3 -263 5 -269 81 -309 36 -19 62 -23
183 -26 176 -5 245 7 290 52 47 47 54 88 54 314 l0 202 -26 10 c-14 6 -52 10
-85 10 l-59 0 0 -204 c0 -118 -4 -216 -11 -234 -29 -83 -219 -84 -248 -2 -7
21 -11 110 -11 236 l0 204 -62 -1 c-35 0 -73 -4 -86 -10z"/>
<path d="M11375 9196 c-44 -7 -90 -16 -102 -20 l-23 -7 0 -257 c0 -144 4 -264
10 -272 7 -11 29 -15 87 -15 l78 0 3 232 2 232 38 12 c53 17 147 15 178 -5 14
-10 29 -28 34 -42 6 -14 10 -118 10 -231 l0 -205 76 4 c52 2 78 8 85 18 6 9 9
102 7 235 -3 252 -8 269 -86 307 -37 17 -66 21 -181 24 -81 2 -168 -2 -216
-10z"/>
<path d="M19390 14415 l0 -345 358 2 357 3 3 343 2 342 -360 0 -360 0 0 -345z"/>
<path d="M19390 7375 l0 -345 358 2 357 3 3 343 2 342 -360 0 -360 0 0 -345z"/>
</g>
</svg>
