<svg version="1.1" id="Layer_1" xmlns="http://www.w3.org/2000/svg" xmlns:xlink="http://www.w3.org/1999/xlink" x="0px" y="0px"
	 width="100%" viewBox="0 0 1024 576" enable-background="new 0 0 1024 576" xml:space="preserve">
	 <path fill="#00BF63"
	d="
M380.431885,249.426987 
	C339.656464,290.210236 299.129211,330.740234 258.604492,371.272797 
	C252.606537,377.271912 252.612152,377.277527 246.256561,372.667633 
	C245.935425,372.722870 245.531677,372.679199 245.307388,372.859192 
	C239.602036,377.437347 239.616089,377.430664 234.143875,371.960388 
	C208.220520,346.046112 182.332825,320.095734 156.307571,294.284180 
	C153.206223,291.208282 152.607666,289.337128 156.122894,285.953217 
	C168.004044,274.515869 179.620422,262.796783 191.112549,250.966370 
	C194.239609,247.747284 196.159912,247.421631 199.497009,250.840027 
	C212.994705,264.666626 226.718231,278.276367 240.528397,291.792450 
	C246.078949,297.224823 244.866409,298.590240 251.651749,291.823914 
	C281.264496,262.294189 310.830566,232.717667 340.407928,203.152481 
	C344.949982,198.612305 344.882874,198.651535 349.292908,203.108765 
	C360.541260,214.477600 371.839874,225.796692 383.122772,237.131317 
	C387.900879,241.931335 387.905823,241.926407 383.150604,246.696548 
	C382.327271,247.522476 381.504120,248.348541 380.431885,249.426987 
z"/>
<path fill="#000000" opacity="1.000000" stroke="none" 
	d="
M17.492935,250.496552 
	C20.827564,247.707108 23.783588,244.994598 27.013641,242.661453 
	C39.370895,233.735504 42.858536,220.773743 36.445053,207.036621 
	C18.854443,169.358978 42.213833,129.645142 83.718193,126.666451 
	C97.139343,125.703239 107.852097,114.823982 108.750656,101.244934 
	C110.724655,71.413971 133.150696,49.252506 162.943588,48.154335 
	C171.481628,47.839619 179.761887,49.841705 187.633179,53.456894 
	C203.838974,60.900021 215.897614,57.501270 226.082062,42.843262 
	C247.566849,11.921157 294.606140,11.768044 316.265717,42.697548 
	C321.802856,50.604519 328.373627,56.345318 338.379517,57.215294 
	C344.050293,57.708344 349.180237,56.045677 354.254333,53.770931 
	C381.649323,41.489616 411.362518,50.605469 426.375305,75.778595 
	C431.554840,84.463539 432.980469,94.137772 434.257446,103.910759 
	C435.851715,116.111481 446.380463,125.858475 458.562805,126.658768 
	C499.961639,129.378357 523.531982,168.796051 506.386078,206.724152 
	C501.678925,217.136719 501.933502,227.021652 508.815491,236.442566 
	C511.133423,239.615662 514.408508,241.644028 517.489929,243.906082 
	C546.757080,265.390808 549.137817,305.698700 522.512695,330.254425 
	C519.832947,332.725861 516.641235,334.632477 513.829285,336.972076 
	C502.970398,346.007172 500.355316,358.141632 506.300110,371.082550 
	C516.666504,393.648651 513.940857,414.591003 497.756592,433.378387 
	C488.196930,444.475616 475.589081,450.311096 461.002197,451.275055 
	C446.062134,452.262390 435.500305,461.556641 434.088165,476.370148 
	C431.892975,499.397583 421.098938,516.341431 399.673950,525.674866 
	C384.647736,532.220764 369.518127,531.403809 354.662048,524.607605 
	C338.992401,517.439209 327.008057,520.690430 316.871307,534.835754 
	C294.071564,566.651611 249.264008,566.813110 226.207199,535.162537 
	C215.574066,520.566223 203.937805,517.466919 187.559280,524.868774 
	C152.601791,540.666931 113.914658,518.768127 109.612396,480.616882 
	C108.420143,470.044312 105.408508,460.744781 95.458916,455.135284 
	C91.465599,452.883881 87.215080,451.572266 82.649406,451.367401 
	C44.770416,449.667908 19.697866,409.386963 35.012547,374.679108 
	C37.865631,368.213104 40.674316,361.809113 39.438038,354.530945 
	C37.989635,346.003967 33.315262,339.777313 26.154613,334.872833 
	C0.474391,317.283905 -5.910084,283.193237 11.513059,257.665314 
	C13.193384,255.203339 15.320484,253.046295 17.492935,250.496552 
M225.995178,498.324005 
	C234.820877,502.460846 242.266037,508.515808 247.294449,516.721069 
	C258.642395,535.238098 284.345276,535.249146 295.962982,516.025024 
	C303.557892,503.457489 315.961609,496.760895 330.202789,493.721497 
	C343.133026,490.961884 355.198517,493.847626 367.061981,499.192139 
	C383.594269,506.639893 401.753845,497.306671 405.291260,479.829285 
	C406.078583,475.939209 406.043518,471.887817 406.738586,467.973145 
	C410.964996,444.171173 432.347534,424.363892 455.763763,423.845367 
	C476.624725,423.383362 491.628876,402.106140 480.459747,382.003082 
	C475.862305,373.728333 474.204102,364.429108 475.055054,354.922058 
	C476.719025,336.332001 485.489746,322.044403 500.971039,311.493408 
	C517.139099,300.474304 517.496826,277.313934 501.020233,266.749329 
	C478.493073,252.305191 467.202698,221.388611 481.362671,193.837738 
	C483.638336,189.410004 485.062592,184.556015 484.163605,179.386612 
	C481.510071,164.128036 472.243378,155.663513 456.825592,154.411804 
	C428.982513,152.151352 407.208984,131.016663 405.955139,103.231186 
	C405.082611,83.894852 384.674469,69.971313 365.626404,79.282150 
	C339.272919,92.163940 312.126038,84.769653 295.027679,60.955822 
	C281.912720,42.689877 260.710938,42.704048 247.802658,61.108929 
	C242.424240,68.777573 235.812546,74.948814 227.435287,79.119736 
	C211.053268,87.276131 194.393204,87.943008 177.921417,79.748970 
	C156.831848,69.257774 137.994110,85.112915 136.821167,102.989128 
	C134.930756,131.800446 115.194931,150.812119 86.175667,154.459396 
	C78.602089,155.411270 71.322067,157.109573 66.069313,163.216537 
	C57.896664,172.718262 55.917473,183.190643 61.696491,194.664124 
	C67.291130,205.771545 68.738556,217.526047 66.651848,229.637268 
	C63.960201,245.259506 55.167137,256.959778 42.508427,266.161011 
	C25.136786,278.787964 25.518082,300.134003 43.127602,312.508331 
	C52.177292,318.867615 59.277504,326.848389 63.414967,337.264038 
	C69.898613,353.585938 68.195061,369.323242 61.100159,385.143799 
	C52.952515,403.311829 65.402733,422.663055 85.330040,423.660553 
	C111.767227,424.983887 133.294952,445.392639 136.409943,471.921722 
	C137.124695,478.008942 137.750229,484.165222 141.291977,489.539398 
	C147.969940,499.672302 162.036148,505.987732 177.044922,498.787018 
	C192.972031,491.145630 209.100220,490.740112 225.995178,498.324005 
z"/>
<path fill="#000000" opacity="1.000000" stroke="none" 
	d="
M805.330688,243.001587 
	C805.325684,252.500717 805.226257,261.501678 805.363953,270.499054 
	C805.416382,273.920410 804.156799,275.275787 800.704346,275.243103 
	C784.875366,275.093231 787.907776,276.793243 787.574524,262.969269 
	C787.353760,253.809570 787.303406,244.643921 786.945801,235.489960 
	C786.670227,228.436142 784.041992,225.054688 779.015991,224.550461 
	C773.360596,223.983063 769.086304,227.460617 767.202026,233.846664 
	C765.845886,238.442871 766.360229,243.109695 766.296509,247.750824 
	C766.191223,255.415665 766.196411,263.083618 766.285706,270.748749 
	C766.322571,273.918671 765.020691,275.271851 761.831787,275.236969 
	C745.149658,275.054504 748.130615,277.154205 747.892639,262.241028 
	C747.751770,253.410065 747.900635,244.574341 747.744263,235.743866 
	C747.621521,228.816315 745.081543,225.384415 739.976624,224.682129 
	C734.352356,223.908432 730.033081,227.297302 728.113281,233.784775 
	C726.854736,238.037720 727.223450,242.380890 727.160889,246.690323 
	C727.047241,254.521576 727.049133,262.356750 727.162354,270.187988 
	C727.213440,273.723114 725.954041,275.341461 722.210022,275.274811 
	C705.951599,274.985260 708.912292,277.066284 708.746033,262.330872 
	C708.573059,247.000198 708.804932,231.664810 708.611938,216.334595 
	C708.559448,212.166092 710.079529,210.933609 714.120544,210.776779 
	C719.745178,210.558441 724.588806,210.761017 724.782227,218.503082 
	C736.613159,206.506790 754.305359,207.317642 764.071960,218.785843 
	C767.852844,214.517212 772.349060,211.270844 778.131287,210.322876 
	C791.584961,208.117157 805.594849,213.007050 805.338867,232.002579 
	C805.291687,235.501785 805.331238,239.002136 805.330688,243.001587 
z"/>
<path fill="#000000" opacity="1.000000" stroke="none" 
	d="
M742.406860,335.874329 
	C754.006470,335.880890 765.108704,337.399170 776.278320,336.847931 
	C778.457947,336.740387 780.451172,337.287018 780.264038,340.053223 
	C780.088745,342.644318 781.677856,345.973419 777.678284,347.215332 
	C775.800354,347.798462 773.761597,347.955627 771.899414,349.414429 
	C772.857117,354.019257 774.081482,358.704559 772.846313,363.537872 
	C770.285706,373.557739 761.764771,379.533722 748.886169,380.200378 
	C746.726135,380.312164 744.554565,380.191437 742.388306,380.191925 
	C740.474548,380.192383 739.111328,381.137115 738.739868,382.966034 
	C738.293030,385.166046 740.133179,385.937897 741.696411,386.297363 
	C743.617004,386.738983 745.656555,386.703766 747.648376,386.787567 
	C753.132446,387.018341 758.631714,386.453796 764.107483,387.409363 
	C771.369629,388.676727 777.212463,391.806885 779.088013,399.439911 
	C781.204895,408.055176 779.272034,415.760315 772.019348,421.351562 
	C763.020325,428.289062 752.272583,428.747467 741.540283,428.676147 
	C737.059082,428.646393 732.587463,428.013733 728.288391,426.499786 
	C721.196594,424.002319 716.529785,419.328247 716.100830,411.647003 
	C715.693298,404.347992 719.445618,399.339355 726.187256,396.562866 
	C726.636536,396.377838 727.034790,396.057495 727.433472,395.768036 
	C727.552490,395.681610 727.592285,395.485901 727.668335,395.340271 
	C721.630676,386.246338 721.793640,384.723877 730.016357,375.832886 
	C726.747437,372.850555 723.513794,369.776550 721.993713,365.386536 
	C717.384949,352.076385 724.614685,339.442444 738.530029,336.633545 
	C739.672791,336.402893 740.813538,336.162567 742.406860,335.874329 
M755.137451,402.138306 
	C749.812134,402.184601 744.460876,401.927765 739.170410,402.380981 
	C735.481140,402.696991 732.479065,404.694763 732.291138,408.987488 
	C732.107727,413.177002 735.049622,414.694885 738.446106,415.687134 
	C744.978149,417.595490 751.355286,416.386108 757.555115,414.330658 
	C761.013245,413.184174 764.055054,410.802002 763.443481,406.674988 
	C762.861877,402.749847 759.261658,402.470917 755.137451,402.138306 
M740.069397,350.685730 
	C738.287781,353.132141 738.202087,355.942719 738.312622,358.801270 
	C738.582764,365.787628 743.161072,369.915710 749.170654,368.451355 
	C752.964355,367.526978 755.318909,364.977112 755.608948,361.107147 
	C755.952209,356.526337 756.892212,351.433319 751.919800,348.541901 
	C747.941956,346.228851 743.937439,346.711670 740.069397,350.685730 
z"/>
<path fill="#000000" opacity="1.000000" stroke="none" 
	d="
M847.910706,274.467651 
	C844.750244,273.184753 842.481018,271.247131 840.308289,269.271698 
	C840.308289,279.008667 840.215759,288.570679 840.357910,298.129242 
	C840.408386,301.519684 839.167603,302.991669 835.747620,302.996490 
	C818.967163,303.020203 822.033142,304.066589 821.942993,290.244568 
	C821.787598,266.419800 821.829834,242.593063 821.950562,218.767960 
	C821.964722,215.968994 820.305908,212.052948 825.090942,211.018204 
	C832.368896,209.444366 836.299377,210.978546 838.443665,216.173645 
	C838.686523,216.762085 839.118591,217.272461 839.714355,218.218124 
	C842.343506,215.922699 844.578064,213.441696 847.585266,211.975601 
	C859.975586,205.935074 874.404114,212.019012 879.161377,225.607376 
	C882.773254,235.924026 883.121155,246.497177 880.137573,257.051178 
	C875.711609,272.707794 863.972473,279.121490 847.910706,274.467651 
M862.963196,237.451172 
	C862.872681,236.623184 862.831360,235.786316 862.683899,234.968613 
	C861.482788,228.306732 858.059692,224.863068 852.406250,224.598541 
	C846.449219,224.319809 842.483826,227.520401 841.025391,234.226990 
	C839.702271,240.311661 839.805725,246.466568 841.331238,252.521378 
	C842.835205,258.490936 846.066345,260.975372 851.998413,261.013092 
	C857.250122,261.046539 860.951355,258.288818 862.240906,252.620697 
	C863.304382,247.945953 864.337280,243.157196 862.963196,237.451172 
z"/>
<path fill="#000000" opacity="1.000000" stroke="none" 
	d="
M593.402588,398.777985 
	C590.016846,397.769196 588.685425,395.775238 588.909180,392.663635 
	C589.190308,388.754456 588.246094,384.743805 589.890137,380.279877 
	C596.482666,382.411255 602.656616,385.386780 609.418457,386.268616 
	C612.920166,386.725311 616.364319,387.020264 619.777832,385.802673 
	C626.515625,383.399200 627.847900,376.744263 622.238037,372.276123 
	C619.533508,370.122009 616.292847,368.625000 613.241882,366.925720 
	C609.315796,364.738983 605.147766,362.932404 601.416809,360.459900 
	C591.852417,354.121552 588.297607,344.685974 590.893799,333.566925 
	C592.991821,324.581085 601.365417,318.099823 612.233765,316.667328 
	C621.772827,315.410126 630.738342,317.362518 639.604980,320.624207 
	C642.955322,321.856659 643.337219,323.496094 641.984558,326.654968 
	C637.923950,336.137482 638.036011,336.202454 628.315063,333.481384 
	C624.096130,332.300415 619.815796,331.848816 615.458313,332.261353 
	C612.180359,332.571655 609.729980,334.204285 608.698669,337.363617 
	C607.590637,340.757843 608.787415,343.614777 611.528015,345.775452 
	C615.092529,348.585754 619.263489,350.349792 623.312134,352.295013 
	C627.231750,354.178223 630.978088,356.320892 634.484009,358.891815 
	C641.733582,364.207855 644.571777,371.462463 643.735229,380.244324 
	C642.815857,389.896515 637.348206,396.152191 628.524048,399.476807 
	C616.921265,403.848297 605.303223,402.680878 593.402588,398.777985 
z"/>
<path fill="#000000" opacity="1.000000" stroke="none" 
	d="
M986.071167,270.394318 
	C984.604065,266.711334 983.102112,268.530975 981.552490,269.899994 
	C974.300293,276.306763 965.862793,277.558746 956.779114,275.254028 
	C949.615601,273.436493 944.582092,267.258270 943.759460,259.795227 
	C942.667908,249.893021 945.634827,243.191132 952.924438,239.392654 
	C960.400513,235.496964 968.605347,235.331177 976.753845,234.814819 
	C978.841858,234.682510 981.937073,235.960114 982.499573,232.531219 
	C983.060547,229.111160 981.571167,226.300339 978.403992,224.679016 
	C974.749634,222.808289 970.932983,223.506195 967.152588,224.274521 
	C965.850037,224.539261 964.550476,224.842651 963.276062,225.218353 
	C954.214661,227.889679 954.309998,227.859604 950.671143,218.822754 
	C949.681396,216.364899 950.204529,215.094421 952.486206,214.154877 
	C963.588440,209.583145 974.935669,207.984894 986.607239,211.639343 
	C995.178711,214.323135 999.644958,220.315033 1000.379333,229.276001 
	C1001.429626,242.090088 1000.703247,254.920135 1000.832764,267.740875 
	C1000.859497,270.391815 1002.273804,274.116943 997.863525,275.123749 
	C991.894104,276.486420 988.452209,275.138947 986.071167,270.394318 
M964.447144,261.106934 
	C972.532288,264.660919 980.747620,261.078888 982.452148,253.256378 
	C983.704590,247.509048 982.575073,246.157150 976.685486,246.219910 
	C974.024841,246.248260 971.410950,246.443085 968.867676,247.317001 
	C962.456055,249.520233 960.629028,254.346848 964.447144,261.106934 
z"/>
<path fill="#000000" opacity="1.000000" stroke="none" 
	d="
M849.100464,364.000000 
	C849.108093,374.663025 848.971375,384.829163 849.188477,394.987671 
	C849.283508,399.435883 847.829102,401.299255 843.176147,401.196777 
	C836.323425,401.045929 836.318115,401.287720 831.972595,394.021698 
	C825.068909,400.760437 816.932373,403.430450 807.372437,401.575836 
	C796.597412,399.485504 790.350647,393.060059 789.912903,381.704987 
	C789.387085,368.062988 789.732117,354.387177 789.728149,340.725983 
	C789.727905,339.911499 789.686340,338.658051 790.152954,338.350342 
	C794.840088,335.259521 800.087952,337.053406 805.078918,337.039185 
	C808.323364,337.029938 808.014343,340.160309 808.031860,342.419189 
	C808.106506,352.081848 808.069885,361.745331 808.089417,371.408508 
	C808.093079,373.240631 808.118225,375.075256 808.217529,376.904175 
	C808.559875,383.211334 811.068848,386.451355 816.227173,387.320526 
	C821.470825,388.204102 826.574768,385.410065 828.737976,380.306519 
	C830.113159,377.062195 830.718628,373.634094 830.709473,370.086914 
	C830.685425,360.756989 830.837769,351.424744 830.668335,342.097992 
	C830.598572,338.262085 831.921936,336.702637 835.855530,336.770111 
	C851.215698,337.033722 848.923218,334.915955 849.099670,349.505127 
	C849.156067,354.169403 849.102905,358.834991 849.100464,364.000000 
z"/>
<path fill="#000000" opacity="1.000000" stroke="none" 
	d="
M652.111694,211.759628 
	C659.645752,209.361481 666.843262,209.078186 674.112976,211.087509 
	C686.128052,214.408447 694.345581,224.887680 695.208252,238.440811 
	C695.460144,242.399719 695.511047,246.491608 694.811035,250.370392 
	C691.557007,268.400848 678.444275,278.160828 660.597412,276.172089 
	C643.322998,274.247131 632.770203,260.864746 633.358887,242.184814 
	C633.790161,228.499664 638.102722,217.434814 652.111694,211.759628 
M663.629456,224.992996 
	C656.948853,225.794647 654.340393,227.784760 652.931641,234.157150 
	C651.555054,240.384384 651.458801,246.741867 653.242920,252.935120 
	C654.879150,258.615051 659.141479,261.635590 664.700500,261.475830 
	C670.111572,261.320312 674.114380,258.252899 675.588501,252.831039 
	C677.231873,246.786880 677.313721,240.641571 675.882629,234.552185 
	C674.244446,227.581497 671.822449,225.652206 663.629456,224.992996 
z"/>
<path fill="#000000" opacity="1.000000" stroke="none" 
	d="
M675.906738,373.690125 
	C671.567627,373.136444 670.711487,375.010620 671.853699,378.384552 
	C673.664490,383.733276 677.129395,387.205475 682.939514,387.800598 
	C689.483948,388.470917 695.892029,387.820404 702.123230,385.592224 
	C703.797913,384.993408 705.366821,383.809998 707.590515,384.389893 
	C708.873352,388.002686 708.281860,391.806213 708.100708,395.549774 
	C707.995239,397.729004 706.109253,398.524994 704.375854,399.124847 
	C694.208069,402.643372 683.842285,403.471771 673.467407,400.391937 
	C660.937988,396.672546 653.389709,386.407959 652.711792,372.820404 
	C652.470276,367.981415 652.792847,363.189758 653.749878,358.423004 
	C656.483887,344.805695 667.545105,335.896393 682.070251,335.706451 
	C697.479431,335.505005 707.993347,343.011353 710.814453,356.590424 
	C711.620056,360.468140 711.512878,364.531830 711.881836,368.504913 
	C712.232056,372.275848 710.724548,374.015472 706.785034,373.947571 
	C696.630188,373.772461 686.471985,373.792450 675.906738,373.690125 
M681.817383,349.218903 
	C674.710693,350.535858 671.834045,354.096039 672.687927,360.437561 
	C679.822205,360.437561 686.933777,360.437561 694.067810,360.437561 
	C693.342590,352.342438 690.401672,349.583649 681.817383,349.218903 
z"/>
<path fill="#000000" opacity="1.000000" stroke="none" 
	d="
M935.629395,350.561890 
	C934.761475,350.822052 934.286133,350.976654 933.809265,351.126099 
	C924.894653,353.919708 924.938171,353.857788 921.581055,344.942505 
	C920.614624,342.376312 920.922424,340.869598 923.508423,339.844360 
	C934.155518,335.623138 945.053528,334.045013 956.242493,337.185028 
	C965.861938,339.884521 971.214478,347.000732 971.306519,357.083435 
	C971.423645,369.910400 971.353394,382.739502 971.294983,395.567352 
	C971.285034,397.759003 972.020935,400.906219 968.496582,400.862823 
	C964.804321,400.817352 960.346619,403.106049 957.691833,398.398560 
	C956.885010,396.967834 956.287231,395.419159 955.682800,394.116394 
	C953.941345,393.544861 953.262695,394.685120 952.465820,395.441925 
	C945.054932,402.481323 936.245422,403.484283 926.887024,400.955963 
	C918.975891,398.818634 914.372498,391.630646 914.140076,382.065308 
	C913.934326,373.597046 918.066223,367.170654 925.907227,364.136536 
	C932.681458,361.515167 939.836853,361.134125 947.005310,360.749115 
	C949.191589,360.631683 952.756775,362.162079 953.167725,358.502960 
	C953.566956,354.947449 952.296082,351.583466 948.310974,350.100616 
	C944.139893,348.548615 940.097229,349.666168 935.629395,350.561890 
M933.756958,385.436188 
	C938.273010,391.522888 950.265869,388.069824 952.579224,381.087738 
	C955.062012,373.593872 953.927612,371.839081 946.137146,372.164124 
	C944.977844,372.212524 943.809143,372.224335 942.663574,372.385895 
	C935.202087,373.438080 932.529724,377.033081 933.756958,385.436188 
z"/>
<path fill="#000000" opacity="1.000000" stroke="none" 
	d="
M580.315918,232.153488 
	C580.255920,236.446304 580.438538,240.227631 581.243713,244.018723 
	C583.885925,256.458588 592.372498,262.477905 604.920471,260.372284 
	C609.335022,259.631561 613.669983,258.414673 618.038391,257.402740 
	C619.310730,257.108002 620.578003,256.469727 621.615845,257.951965 
	C624.687073,262.338287 621.333191,272.451263 616.217285,273.852112 
	C607.629395,276.203552 598.973816,277.087311 590.073242,275.492035 
	C578.303345,273.382568 569.864380,267.093842 565.342590,256.077057 
	C559.685059,242.293015 559.358093,228.107224 564.511841,214.190170 
	C571.691895,194.801392 588.515198,188.469391 608.664856,191.084091 
	C610.468689,191.318176 612.244324,191.826263 614.008545,192.298752 
	C626.100159,195.536972 627.021790,198.174438 620.264160,209.018250 
	C618.700623,211.527313 617.060669,210.730438 615.192383,209.941544 
	C610.584106,207.995651 605.987793,206.176392 600.822327,206.209991 
	C592.128601,206.266541 585.873108,210.363174 582.794983,218.532272 
	C581.205750,222.750061 580.250671,227.137115 580.315918,232.153488 
z"/>
<path fill="#000000" opacity="1.000000" stroke="none" 
	d="
M911.020874,218.359100 
	C913.567993,221.836380 914.091858,218.169479 914.873779,217.358582 
	C919.626038,212.429916 925.187134,209.652771 932.129883,209.724289 
	C935.932983,209.763474 937.713257,211.386307 937.128967,215.269211 
	C937.030029,215.926605 936.986938,216.592255 936.894409,217.250778 
	C935.616211,226.350281 935.615173,226.350098 926.552917,227.318130 
	C918.490845,228.179291 913.518860,233.863007 913.380371,242.738434 
	C913.237610,251.886841 913.212158,261.040894 913.371948,270.188324 
	C913.433838,273.731934 912.407654,275.339935 908.600220,275.278198 
	C893.065308,275.026215 895.274536,277.128052 895.140198,262.217255 
	C895.006897,247.411194 895.023376,232.603088 895.094055,217.796463 
	C895.108093,214.856079 894.117615,211.224777 899.178711,210.849152 
	C907.988403,210.195267 909.019836,210.588837 910.432800,216.642395 
	C910.545410,217.124893 910.743408,217.587479 911.020874,218.359100 
z"/>
<path fill="#000000" opacity="1.000000" stroke="none" 
	d="
M865.812988,395.785339 
	C865.805298,378.002167 865.759277,360.695099 865.845947,343.388672 
	C865.858826,340.820190 864.717529,337.488251 869.148621,336.840393 
	C876.713501,335.734314 879.510498,336.716003 880.939209,341.362701 
	C881.372864,342.773285 881.331299,344.365479 882.575928,345.603699 
	C884.557983,345.706512 885.033203,343.758942 886.121887,342.701111 
	C891.014648,337.947266 896.695435,335.286743 903.636047,335.733948 
	C905.527527,335.855804 907.617126,336.020081 907.599243,338.501587 
	C907.571716,342.318146 907.273193,346.139160 906.935547,349.944580 
	C906.746826,352.071808 905.469360,353.139679 903.213684,353.045135 
	C901.390198,352.968719 899.548462,353.009033 897.730591,353.172363 
	C889.436035,353.917328 884.401611,359.271851 884.313293,367.606842 
	C884.212769,377.091370 884.169617,386.579041 884.309998,396.062256 
	C884.363281,399.660034 883.109253,401.328369 879.404236,401.130432 
	C876.583740,400.979736 873.742676,401.008728 870.920349,401.149536 
	C867.396301,401.325348 865.502502,399.997223 865.812988,395.785339 
z"/>
<path fill="#000000" opacity="1.000000" stroke="none" 
	d="
M209.655853,368.344360 
	C190.099548,348.758545 170.772034,329.444031 151.490097,310.084137 
	C138.543747,297.085480 138.513824,281.129242 151.371857,268.136200 
	C157.817062,261.623291 164.260300,255.106110 170.819260,248.708618 
	C182.296951,237.513535 198.866989,237.362579 210.294693,248.612457 
	C221.560211,259.702728 232.509628,271.114044 243.247101,282.028137 
	C246.398636,281.670258 247.409180,279.744751 248.759094,278.397888 
	C276.356750,250.863419 303.905029,223.279465 331.488892,195.731125 
	C343.975250,183.260880 360.232941,183.250351 372.692749,195.653061 
	C378.832947,201.765137 384.949951,207.900558 391.070709,214.032166 
	C404.328674,227.313644 404.312286,243.360947 390.953308,256.733276 
	C358.689484,289.029327 326.396637,321.296326 294.116852,353.576385 
	C287.755157,359.938202 281.430054,366.336945 275.035309,372.665344 
	C256.676208,390.833954 232.058212,390.752350 213.782150,372.493683 
	C212.485641,371.198395 211.196579,369.895660 209.655853,368.344360 
M358.134308,249.612366 
	C362.043640,245.745682 365.955017,241.881073 369.861053,238.011047 
	C371.072388,236.810883 372.516266,235.472931 370.859131,233.790833 
	C364.712433,227.551437 358.458862,221.417374 350.900299,213.907242 
	C349.373688,216.219696 348.437897,218.308945 346.927368,219.825867 
	C317.058960,249.820923 287.127228,279.752991 257.200439,309.689911 
	C247.846817,319.046692 241.065536,318.996338 231.649521,309.568848 
	C219.283890,297.188141 206.802475,284.920319 194.606094,272.375244 
	C191.493469,269.173615 189.573425,269.177399 186.641602,272.437195 
	C182.413544,277.138245 177.803085,281.506561 173.212112,285.865509 
	C170.727402,288.224670 170.808807,289.905212 173.298523,292.372437 
	C193.777161,312.666077 214.090790,333.126038 234.539673,353.449890 
	C240.795609,359.667572 248.018021,359.565887 254.419937,353.360382 
	C260.162598,347.793945 265.786072,342.104095 271.438507,336.445099 
	C300.171326,307.678619 328.896454,278.904480 358.134308,249.612366 
z"/>
<path fill="#000000" opacity="1.000000" stroke="none" 
	d="
M450.313507,350.144531 
	C424.845581,418.684448 376.447327,460.062866 305.370697,474.997650 
	C296.512909,476.858856 289.958405,473.987549 287.124512,467.566071 
	C283.184265,458.637573 288.294800,449.436646 298.157135,447.727753 
	C325.613403,442.970337 350.437836,432.180298 372.101959,414.638245 
	C404.409637,388.477814 424.359741,354.686737 430.379089,313.645691 
	C441.763031,236.028275 398.278809,165.596008 328.619995,138.815170 
	C326.755585,138.098389 324.872864,137.420639 323.044495,136.620148 
	C315.556976,133.342010 312.362976,126.038940 315.103027,118.557579 
	C317.728394,111.389320 324.842712,107.940750 332.612000,110.500999 
	C355.690460,118.106155 376.367859,130.072617 394.677551,145.962753 
	C429.772491,176.420120 450.742157,214.884918 458.049225,260.651001 
	C462.878326,290.896698 460.182617,320.677368 450.313507,350.144531 
z"/>
<path fill="#000000" opacity="1.000000" stroke="none" 
	d="
M215.120331,439.777039 
	C220.285828,441.515442 225.090988,443.267365 227.149658,448.462280 
	C229.231277,453.715057 229.203033,458.877563 225.370071,463.508575 
	C221.229980,468.510559 215.865112,469.515869 210.007095,467.676697 
	C193.015823,462.342194 177.384262,454.192749 162.924988,443.871979 
	C121.870331,414.567932 95.967979,375.082306 86.177979,325.722900 
	C71.052277,249.461823 102.616394,172.023804 170.158981,129.245102 
	C191.094330,115.985504 213.871414,107.410362 238.243439,103.007156 
	C248.263290,101.196907 255.202118,105.521324 256.893402,114.723671 
	C258.262512,122.173134 252.811096,128.699097 243.765839,130.457443 
	C242.949615,130.616119 242.158356,130.903091 241.342224,131.062469 
	C173.976913,144.218048 123.876900,195.081482 112.577431,262.799988 
	C102.138535,325.361053 129.540512,389.615509 185.259155,425.056763 
	C194.579483,430.985260 204.386368,435.874634 215.120331,439.777039 
z"/>
<path fill="#000000" opacity="1.000000" stroke="none" 
	d="
M271.882446,463.257111 
	C270.975006,472.330200 266.435669,477.286621 258.837219,477.975342 
	C252.547867,478.545410 246.601898,474.294464 244.616730,467.808685 
	C242.296158,460.227173 246.552521,452.753906 254.477890,450.494446 
	C261.871002,448.386749 269.412018,452.830292 271.312439,460.424255 
	C271.513367,461.227112 271.647919,462.046509 271.882446,463.257111 
z"/>
<path fill="#000000" opacity="1.000000" stroke="none" 
	d="
M275.168030,104.145844 
	C281.495483,99.463974 286.866455,99.033150 292.482666,102.516350 
	C296.888458,105.248833 299.510590,111.048988 298.694305,116.256622 
	C297.793549,122.003098 293.571075,126.513977 287.804291,127.890450 
	C282.321594,129.199112 276.426208,126.736618 273.140350,121.765274 
	C269.466400,116.206795 270.034637,110.601967 275.168030,104.145844 
z"/>
</svg>