<?xml version="1.0" standalone="no"?>
<!DOCTYPE svg PUBLIC "-//W3C//DTD SVG 20010904//EN"
 "http://www.w3.org/TR/2001/REC-SVG-20010904/DTD/svg10.dtd">
<svg version="1.0" xmlns="http://www.w3.org/2000/svg"
 width="1920.000000pt" height="1080.000000pt" viewBox="0 0 1920.000000 1080.000000"
 preserveAspectRatio="xMidYMid meet">

<g transform="translate(0.000000,1080.000000) scale(0.100000,-0.100000)"
fill="#000000" stroke="none">
<path d="M1342 8940 c-87 -31 -172 -111 -207 -193 -12 -29 -185 -813 -185
-839 0 -5 -118 -8 -262 -8 -286 0 -376 -9 -441 -41 -58 -29 -133 -104 -165
-164 -24 -45 -27 -60 -27 -155 0 -91 3 -112 25 -155 33 -67 103 -135 175 -171
l60 -29 238 -3 c130 -2 237 -7 237 -11 0 -4 -14 -70 -30 -147 -17 -76 -33
-151 -36 -166 l-6 -28 -146 0 c-173 0 -267 -12 -325 -41 -58 -29 -133 -104
-165 -164 -24 -45 -27 -60 -27 -155 0 -91 3 -112 25 -155 33 -68 103 -135 175
-170 54 -26 73 -29 183 -33 67 -2 122 -8 122 -13 0 -11 -70 -333 -73 -334 -1
-1 -45 -6 -98 -12 -115 -13 -173 -40 -240 -110 -69 -71 -92 -122 -97 -220 -9
-169 77 -304 230 -360 27 -9 48 -23 48 -31 0 -7 -66 -320 -146 -695 -162 -757
-162 -760 -112 -868 36 -79 89 -133 166 -171 l67 -33 409 -3 409 -3 -7 -77
c-15 -175 26 -422 99 -591 285 -666 1076 -950 1720 -618 160 83 307 209 421
359 116 154 196 338 235 539 13 69 17 317 6 361 l-7 28 1437 0 1438 0 -3 -144
c-5 -214 27 -378 109 -555 167 -361 492 -620 879 -702 136 -28 364 -30 485 -4
270 58 463 162 651 349 251 252 375 570 360 923 l-5 131 227 4 228 3 65 32
c78 39 141 103 174 176 18 40 65 303 205 1146 201 1210 198 1181 145 1287 -19
36 -315 415 -771 984 -729 911 -741 926 -805 960 l-64 35 -658 -2 c-622 -3
-658 -2 -653 15 11 39 136 636 142 680 8 63 -17 161 -57 224 -36 56 -109 112
-179 139 -49 18 -126 19 -2798 19 -2685 -1 -2748 -1 -2800 -20z m5028 -695 c0
-14 -122 -568 -134 -610 -9 -27 -187 -853 -396 -1835 -210 -982 -384 -1795
-387 -1807 l-5 -23 -1105 0 -1105 0 -61 54 c-165 143 -354 235 -577 283 -117
24 -363 24 -480 0 -222 -47 -413 -141 -577 -283 l-61 -54 -316 0 -316 0 1 23
c0 12 49 252 108 532 l107 510 1315 5 1314 5 60 29 c128 63 196 165 203 306 5
112 -20 182 -92 258 -63 67 -125 99 -213 112 -41 6 -531 10 -1250 10 -651 0
-1183 2 -1183 4 0 2 16 79 35 170 19 92 35 169 35 171 0 3 620 6 1378 7 l1377
3 50 23 c80 37 123 71 164 132 124 187 43 447 -167 532 l-57 23 -1295 5 -1296
5 36 170 36 170 1445 5 1444 5 67 33 c248 122 274 463 47 614 -100 67 -3 62
-1491 66 -747 1 -1358 5 -1358 7 0 3 16 80 35 172 19 92 35 169 35 170 0 2
1042 3 2315 3 1273 0 2315 -2 2315 -5z m2304 -1824 c490 -613 606 -765 605
-788 0 -15 -62 -395 -137 -843 l-137 -815 -212 -3 -211 -2 -59 51 c-115 102
-257 185 -405 237 -141 50 -243 66 -418 66 -314 0 -559 -89 -801 -290 l-77
-64 -311 0 c-265 0 -311 2 -311 14 0 11 314 1487 440 2074 l12 52 458 0 c418
0 463 2 518 18 114 36 190 108 233 221 27 72 23 192 -9 263 -27 62 -105 144
-165 174 -71 36 -157 43 -534 44 -214 0 -343 4 -343 10 0 9 55 271 67 318 l5
22 593 0 594 0 605 -759z m-6163 -2830 c187 -64 309 -188 363 -371 19 -63 22
-193 6 -263 -39 -176 -178 -323 -369 -388 -82 -29 -230 -26 -315 5 -233 84
-366 271 -366 512 0 227 137 416 363 500 82 31 237 33 318 5z m5351 -1 c242
-75 406 -334 370 -584 -29 -198 -166 -364 -359 -432 -84 -29 -229 -33 -314 -8
-242 71 -403 300 -386 549 13 177 97 317 249 416 88 57 163 78 279 78 70 1
115 -5 161 -19z"/>
<path d="M10640 6565 l0 -775 445 0 445 0 0 135 0 135 -282 2 -283 3 0 195 0
195 263 3 262 2 0 135 0 135 -265 0 -265 0 2 168 3 167 283 3 283 2 -3 133 -3
132 -442 3 -443 2 0 -775z"/>
<path d="M13387 7188 c-8 -18 -28 -74 -46 -124 l-32 -90 -90 -53 -89 -53 0
-69 0 -69 75 0 75 0 0 -277 c0 -153 5 -318 10 -368 27 -236 152 -328 423 -312
59 3 130 15 170 27 l67 21 0 119 c0 66 -2 120 -5 120 -2 0 -30 -7 -62 -15
-127 -33 -240 -12 -263 51 -6 14 -10 156 -10 330 l0 304 165 0 165 0 0 120 0
120 -165 0 -165 0 0 125 0 125 -105 0 -105 0 -13 -32z"/>
<path d="M18039 6990 c-111 -14 -269 -61 -313 -93 -17 -12 -14 -20 35 -119
l52 -105 56 22 c148 61 315 78 380 40 54 -32 72 -65 78 -138 l6 -65 -44 -6
c-24 -3 -100 -7 -169 -10 -272 -10 -430 -79 -494 -216 -18 -38 -21 -64 -21
-165 0 -148 19 -199 102 -275 78 -71 158 -95 297 -87 139 7 198 31 287 115 38
35 71 63 72 61 2 -2 17 -39 33 -81 l29 -78 113 0 113 0 -3 453 c-3 450 -3 452
-27 511 -44 111 -143 190 -272 221 -82 19 -225 26 -310 15z m289 -737 c-8
-167 -84 -244 -239 -245 -112 0 -159 41 -159 139 0 71 26 112 93 147 55 28
126 40 266 45 l43 1 -4 -87z"/>
<path d="M12329 6967 c-78 -27 -138 -66 -174 -113 -14 -19 -30 -34 -34 -34 -4
0 -17 33 -28 73 l-19 72 -127 3 -127 3 0 -591 0 -590 164 0 165 0 3 368 c3
325 6 373 22 417 40 111 109 158 227 159 81 0 124 -23 159 -85 l25 -44 3 -407
3 -408 164 0 165 0 0 378 c0 207 -5 417 -10 467 -21 183 -106 294 -259 339
-84 25 -240 21 -322 -7z"/>
<path d="M14723 6971 c-69 -23 -151 -87 -193 -149 -19 -29 -38 -52 -42 -52 -4
0 -17 45 -30 100 l-23 100 -122 0 -123 0 0 -590 0 -590 159 0 160 0 3 343 c3
335 3 343 27 394 50 111 138 158 294 158 90 0 98 2 102 20 7 35 23 270 18 278
-9 15 -177 7 -230 -12z"/>
<path d="M15492 6974 c-188 -50 -319 -188 -369 -390 -21 -87 -24 -314 -4 -394
39 -161 140 -290 274 -354 110 -52 162 -61 342 -61 164 1 238 13 348 60 l37
15 0 125 0 125 -52 -22 c-150 -61 -346 -85 -452 -54 -102 30 -186 141 -186
247 l0 29 380 0 380 0 0 109 c0 318 -119 502 -366 566 -74 19 -260 19 -332 -1z
m280 -235 c50 -25 84 -73 103 -144 8 -33 15 -63 15 -67 0 -4 -103 -8 -229 -8
l-228 0 8 46 c18 98 84 177 156 189 21 4 43 8 48 9 22 6 92 -8 127 -25z"/>
<path d="M16720 6984 c-50 -9 -146 -47 -185 -74 -60 -42 -91 -78 -122 -145
-25 -54 -28 -70 -28 -170 0 -84 4 -121 18 -155 27 -65 79 -131 126 -160 22
-14 40 -27 40 -30 0 -3 -22 -22 -49 -42 -66 -50 -83 -79 -88 -147 -3 -48 1
-62 23 -97 15 -22 40 -49 56 -60 32 -21 37 -34 13 -34 -31 0 -123 -52 -162
-91 -68 -67 -89 -169 -57 -275 28 -97 122 -171 265 -210 93 -26 370 -26 490
-1 117 25 237 83 298 144 163 164 141 451 -43 545 -71 37 -97 41 -320 47 -189
6 -226 10 -260 27 -47 22 -55 53 -28 98 l18 28 135 3 c146 3 219 19 302 68 66
39 132 115 158 183 30 80 31 197 2 272 -15 38 -17 54 -9 57 7 2 46 13 87 23
l75 18 3 81 3 81 -238 6 c-131 3 -296 8 -368 10 -71 2 -141 2 -155 0z m227
-203 c63 -29 87 -82 88 -191 0 -137 -44 -199 -149 -208 -69 -6 -96 1 -136 34
-44 37 -60 84 -60 173 1 112 37 180 106 201 48 14 107 11 151 -9z m147 -1022
c55 -15 86 -50 86 -96 0 -114 -123 -177 -345 -178 -93 0 -131 4 -167 18 -65
25 -98 66 -98 122 0 72 60 127 159 146 59 10 314 2 365 -12z"/>
<path d="M13004 5023 c-27 -38 -83 -110 -126 -161 -43 -50 -78 -99 -78 -107 0
-12 19 -15 108 -15 l107 0 105 81 c158 123 290 239 290 255 0 12 -31 14 -179
14 l-179 0 -48 -67z"/>
<path d="M15288 5071 c-79 -16 -118 -68 -118 -158 0 -90 51 -141 150 -150 74
-7 140 16 170 57 51 72 28 200 -41 232 -43 20 -113 28 -161 19z"/>
<path d="M16554 5065 c-8 -19 3 -501 12 -563 l6 -44 -47 51 c-29 31 -74 64
-114 84 -63 31 -70 32 -186 32 -116 0 -123 -1 -187 -33 -120 -59 -203 -175
-244 -342 -26 -104 -26 -364 0 -465 38 -146 117 -265 212 -321 164 -96 407
-60 515 77 17 21 34 39 38 39 4 0 21 -33 37 -72 l30 -73 127 -3 127 -3 -2 823
-3 823 -158 3 c-135 2 -158 0 -163 -13z m-119 -714 c50 -23 78 -53 107 -116
21 -46 23 -64 23 -220 0 -156 -2 -174 -23 -220 -12 -27 -30 -58 -40 -69 -52
-58 -201 -76 -277 -33 -84 47 -125 152 -125 317 0 243 76 360 234 360 38 0 76
-7 101 -19z"/>
<path d="M11100 4206 l0 -776 165 0 165 0 0 295 0 295 88 0 87 0 183 -295 183
-295 181 0 180 0 -18 28 c-10 15 -111 166 -226 336 l-208 310 57 30 c166 89
252 264 225 456 -22 154 -93 253 -225 315 -122 57 -186 66 -529 72 l-308 6 0
-777z m540 493 c157 -25 226 -123 186 -261 -29 -101 -101 -139 -278 -146
l-118 -5 0 212 0 211 73 0 c39 0 101 -5 137 -11z"/>
<path d="M12869 4630 c-111 -14 -269 -61 -313 -93 -17 -12 -14 -20 35 -119
l52 -105 56 22 c148 61 315 78 380 40 54 -32 72 -65 78 -138 l6 -65 -44 -6
c-24 -3 -100 -7 -169 -10 -272 -10 -430 -79 -494 -216 -18 -38 -21 -64 -21
-165 0 -148 19 -199 102 -275 78 -71 158 -95 297 -87 139 7 198 31 287 115 38
35 71 63 72 61 2 -2 17 -39 33 -81 l29 -78 113 0 113 0 -3 453 c-3 450 -3 452
-27 511 -44 111 -143 190 -272 221 -82 19 -225 26 -310 15z m289 -737 c-8
-167 -84 -244 -239 -245 -112 0 -159 41 -159 139 0 71 26 112 93 147 55 28
126 40 266 45 l43 1 -4 -87z"/>
<path d="M17579 4630 c-111 -14 -269 -61 -313 -93 -17 -12 -14 -20 35 -119
l52 -105 56 22 c148 61 315 78 380 40 54 -32 72 -65 78 -138 l6 -65 -44 -6
c-24 -3 -100 -7 -169 -10 -272 -10 -430 -79 -494 -216 -18 -38 -21 -64 -21
-165 0 -148 19 -199 102 -275 78 -71 158 -95 297 -87 139 7 198 31 287 115 38
35 71 63 72 61 2 -2 17 -39 33 -81 l29 -78 113 0 113 0 -3 453 c-3 450 -3 452
-27 511 -44 111 -143 190 -272 221 -82 19 -225 26 -310 15z m289 -737 c-8
-167 -84 -244 -239 -245 -112 0 -159 41 -159 139 0 71 26 112 93 147 55 28
126 40 266 45 l43 1 -4 -87z"/>
<path d="M14323 4611 c-66 -24 -101 -49 -153 -108 -23 -27 -44 -43 -49 -37 -5
5 -16 39 -26 77 l-18 67 -133 0 -134 0 0 -850 0 -850 161 0 161 0 -4 325 c-1
179 -1 325 1 325 2 0 27 -22 57 -49 79 -72 143 -95 274 -95 133 -1 195 21 279
99 130 121 195 350 171 605 -24 247 -106 397 -259 473 -60 29 -75 32 -171 35
-84 2 -116 -2 -157 -17z m146 -261 c82 -46 115 -143 115 -330 0 -182 -41 -287
-126 -329 -95 -46 -224 -11 -272 72 -44 77 -62 223 -46 366 10 93 20 126 53
174 49 73 188 96 276 47z"/>
<path d="M15180 4020 l0 -590 160 0 160 0 0 590 0 590 -160 0 -160 0 0 -590z"/>
</g>
</svg>
