<?xml version="1.0" standalone="no"?>
<!DOCTYPE svg PUBLIC "-//W3C//DTD SVG 20010904//EN"
 "http://www.w3.org/TR/2001/REC-SVG-20010904/DTD/svg10.dtd">
<svg version="1.0" xmlns="http://www.w3.org/2000/svg"
 width="1080.000000pt" height="1080.000000pt" viewBox="0 0 1080.000000 1080.000000"
 preserveAspectRatio="xMidYMid meet">

<g transform="translate(0.000000,1080.000000) scale(0.100000,-0.100000)"
fill="#fff" stroke="none">
<path d="M890 9905 l-455 -455 2025 -2025 2025 -2025 -1938 -1938 -1937 -1937
457 -458 458 -457 1937 1937 1938 1938 2025 -2025 2025 -2025 457 458 458 457
-2025 2025 -2025 2025 1938 1938 1937 1937 -457 458 -458 457 -1937 -1937
-1938 -1938 -2023 2023 c-1112 1112 -2024 2022 -2027 2022 -3 0 -210 -205
-460 -455z"/>
</g>
</svg>
