<?xml version="1.0" standalone="no"?>
<!DOCTYPE svg PUBLIC "-//W3C//DTD SVG 20010904//EN"
 "http://www.w3.org/TR/2001/REC-SVG-20010904/DTD/svg10.dtd">
<svg version="1.0" xmlns="http://www.w3.org/2000/svg"
 width="1080.000000pt" height="1080.000000pt" viewBox="0 0 1080.000000 1080.000000"
 preserveAspectRatio="xMidYMid meet">

<g transform="translate(0.000000,1080.000000) scale(0.100000,-0.100000)"
fill="#fff" stroke="none">
<path d="M2295 9515 c-454 -84 -831 -396 -990 -820 l-23 -60 -453 -5 -454 -5
-57 -28 c-84 -41 -152 -107 -190 -185 -31 -62 -33 -73 -33 -172 0 -95 3 -111
29 -168 40 -87 132 -172 217 -201 60 -20 81 -21 499 -21 l437 0 37 -94 c137
-346 431 -626 782 -745 654 -222 1368 105 1625 743 l36 91 3334 5 c3232 5
3335 6 3383 24 71 27 166 121 202 198 26 57 29 73 29 168 0 93 -3 111 -27 163
-35 73 -116 155 -193 193 l-60 29 -3336 3 -3336 2 -11 38 c-20 67 -101 222
-163 312 -71 104 -233 265 -334 331 -138 91 -297 159 -452 194 -99 23 -395 29
-498 10z m400 -601 c219 -53 415 -236 487 -454 27 -81 37 -295 18 -380 -14
-63 -65 -179 -104 -236 -76 -113 -208 -214 -347 -266 -71 -26 -102 -32 -200
-36 -96 -4 -129 -1 -200 18 -198 51 -364 182 -451 357 -63 126 -82 216 -75
357 9 192 66 318 206 456 89 88 171 140 279 175 108 35 265 38 387 9z"/>
<path d="M8145 6665 c-184 -43 -297 -91 -444 -189 -220 -147 -384 -348 -482
-590 l-36 -91 -3404 -5 -3404 -5 -66 -32 c-80 -39 -150 -111 -187 -191 -24
-50 -27 -69 -27 -162 0 -93 3 -112 27 -162 37 -80 107 -152 187 -191 l66 -32
3404 -5 3404 -5 37 -90 c97 -239 264 -446 471 -584 156 -105 285 -160 472
-200 134 -29 377 -30 518 -1 389 80 719 332 899 690 24 47 50 108 60 135 l17
50 384 5 384 5 57 27 c80 37 152 107 191 187 30 61 32 72 32 171 0 99 -2 110
-32 171 -39 80 -111 150 -191 187 l-57 27 -384 5 -383 5 -24 63 c-155 413
-520 723 -953 812 -146 30 -398 27 -536 -5z m460 -589 c182 -49 355 -189 440
-356 73 -144 95 -328 56 -480 -40 -162 -121 -287 -250 -390 -85 -68 -145 -97
-259 -126 -258 -66 -506 10 -690 211 -117 128 -176 281 -176 460 0 135 13 193
71 315 39 80 59 108 132 181 72 72 102 94 181 132 52 26 127 53 165 62 86 18
244 14 330 -9z"/>
<path d="M4315 3845 c-290 -48 -515 -163 -721 -369 -146 -147 -247 -302 -303
-468 l-18 -53 -1449 -5 -1449 -5 -58 -27 c-80 -38 -158 -115 -193 -191 -36
-78 -44 -196 -20 -279 30 -106 125 -209 233 -253 47 -20 82 -20 1492 -25
l1443 -5 23 -60 c124 -331 394 -608 720 -741 161 -66 260 -86 455 -91 202 -6
288 6 460 63 239 80 461 242 619 451 54 72 161 273 182 342 l12 41 2311 0
c1489 0 2326 4 2354 10 114 27 215 108 268 215 26 55 29 69 29 165 0 95 -3
111 -29 167 -35 76 -113 153 -193 191 l-58 27 -2338 5 -2339 5 -33 82 c-166
412 -529 715 -957 798 -118 23 -332 28 -443 10z m422 -622 c45 -16 107 -45
138 -64 74 -44 185 -155 230 -229 221 -363 72 -835 -318 -1009 -93 -41 -149
-52 -273 -53 -206 0 -351 59 -495 202 -137 136 -198 271 -206 460 -6 132 12
223 66 334 75 153 178 255 327 327 121 58 178 69 324 65 108 -3 136 -8 207
-33z"/>
</g>
</svg>
