<?xml version="1.0" standalone="no"?>
<!DOCTYPE svg PUBLIC "-//W3C//DTD SVG 20010904//EN"
 "http://www.w3.org/TR/2001/REC-SVG-20010904/DTD/svg10.dtd">
<svg version="1.0" xmlns="http://www.w3.org/2000/svg"
 width="1920.000000pt" height="1080.000000pt" viewBox="0 0 1920.000000 1080.000000"
 preserveAspectRatio="xMidYMid meet">

<g transform="translate(0.000000,1080.000000) scale(0.100000,-0.100000)"
fill="#000000" stroke="none">
<path fill="#EBC600" d="M2540 1680 l0 -400 1515 0 1515 0 0 400 0 400 -1515 0 -1515 0 0
-400z"/>
<path d="M1180 10482 c-19 -9 -45 -32 -57 -51 -22 -33 -23 -42 -23 -247 l0
-212 -227 -5 c-198 -3 -238 -7 -303 -26 -176 -52 -321 -171 -404 -331 -66
-127 -71 -154 -70 -370 1 -393 86 -742 274 -1125 251 -512 625 -901 1134
-1183 l110 -61 66 -153 c180 -415 396 -780 634 -1068 105 -128 328 -346 441
-431 90 -69 218 -149 396 -249 239 -135 395 -431 376 -715 -8 -114 -28 -189
-76 -290 -52 -109 -121 -196 -209 -267 -140 -111 -273 -161 -470 -178 -163
-13 -264 -65 -313 -163 -27 -52 -49 -157 -49 -234 l0 -63 -520 0 c-563 0 -559
0 -610 -55 l-25 -27 -5 -1196 -5 -1197 -200 -5 c-170 -4 -205 -8 -228 -23 -63
-41 -83 -120 -47 -184 12 -22 35 -47 50 -56 26 -16 264 -17 3220 -17 3007 0
3194 1 3221 17 16 10 39 37 50 61 34 70 13 142 -54 182 -29 18 -51 20 -224 20
l-193 0 0 1183 c0 1106 -1 1184 -18 1216 -9 19 -30 44 -45 55 -28 21 -40 21
-558 24 l-529 3 0 39 c0 71 -21 194 -42 242 -24 57 -92 122 -156 149 -29 13
-86 24 -147 30 -240 21 -381 79 -527 217 -119 113 -190 237 -229 400 -27 113
-22 281 11 387 61 193 204 375 355 452 103 52 258 149 357 223 446 331 862
918 1147 1615 l33 80 91 50 c353 189 686 491 929 840 171 247 310 551 387 848
65 250 101 576 82 737 -30 245 -165 433 -386 536 -108 50 -197 64 -404 64
l-180 0 -3 213 c-3 239 -8 257 -78 296 l-38 21 -2838 0 c-2683 0 -2841 -1
-2874 -18z m1860 -942 c0 -424 -4 -670 -10 -670 -5 0 -59 36 -121 81 -172 125
-186 125 -356 3 -64 -46 -120 -84 -125 -84 -4 0 -8 302 -8 670 l0 670 310 0
310 0 0 -670z m3181 333 c51 -43 57 -70 64 -293 17 -505 -53 -1066 -199 -1582
-48 -171 -62 -199 -111 -222 -95 -46 -205 17 -205 117 0 21 18 103 39 182 139
507 201 994 188 1490 -6 244 -3 261 52 308 46 39 126 39 172 0z m-5117 -365
c31 -804 140 -1478 350 -2160 8 -27 12 -48 8 -48 -20 0 -242 179 -346 280
-206 199 -362 412 -486 665 -163 332 -242 654 -244 990 -1 156 0 162 28 222
46 99 152 188 253 212 21 5 126 9 234 10 l196 1 7 -172z m6327 152 c118 -36
222 -142 256 -260 13 -44 15 -83 10 -200 -26 -607 -281 -1176 -724 -1612 -97
-96 -312 -273 -320 -264 -2 2 17 76 42 165 183 646 286 1312 302 1944 l6 247
182 0 c154 0 193 -3 246 -20z m-1583 -2099 c38 -27 66 -94 57 -138 -14 -75
-103 -134 -172 -114 -53 15 -72 30 -94 73 -68 132 88 266 209 179z m700 -5883
l-3 -1093 -2507 -3 -2508 -2 0 1095 0 1095 2510 0 2510 0 -2 -1092z"/>
<path d="M2444 2215 c-70 -42 -69 -34 -69 -547 0 -446 0 -457 21 -484 11 -15
33 -37 48 -48 l27 -21 1594 0 1594 0 27 21 c15 11 37 33 48 48 21 27 21 38 21
484 0 514 1 506 -70 547 l-42 25 -1579 0 -1579 0 -41 -25z m3116 -535 l0 -400
-1510 0 -1510 0 0 400 0 400 1510 0 1510 0 0 -400z"/>
<path d="M11730 8720 c-80 -10 -150 -36 -219 -80 -34 -22 -61 -42 -61 -46 0
-10 55 -84 62 -84 4 0 31 15 60 33 74 47 140 67 220 67 83 0 123 -15 165 -63
78 -90 64 -224 -39 -375 -18 -26 -135 -151 -260 -278 l-228 -231 0 -56 0 -57
380 0 380 0 0 60 0 60 -295 0 c-162 0 -295 3 -295 7 0 4 85 91 188 193 276
271 339 364 349 518 6 91 -5 141 -47 204 -65 98 -202 147 -360 128z"/>
<path d="M12460 8693 c-97 -51 -146 -174 -122 -304 22 -120 92 -195 194 -208
127 -16 224 27 272 122 26 51 29 68 29 147 0 79 -3 96 -29 147 -43 84 -100
117 -208 121 -73 3 -86 1 -136 -25z m211 -76 c43 -29 60 -64 66 -137 8 -84
-11 -153 -53 -190 -30 -26 -42 -30 -94 -30 -73 0 -104 14 -131 57 -24 38 -35
128 -25 197 8 49 44 102 80 116 43 18 121 11 157 -13z"/>
<path d="M13630 8415 c-30 -7 -76 -23 -102 -34 l-47 -20 21 -51 c16 -39 25
-49 37 -44 125 56 262 71 331 36 50 -24 80 -88 80 -169 l0 -63 -62 0 c-35 0
-104 -5 -155 -10 -235 -25 -345 -111 -345 -270 0 -105 44 -184 123 -226 45
-23 142 -34 215 -23 84 12 126 32 183 86 24 24 46 43 47 43 2 0 8 -27 15 -60
l12 -60 49 0 49 0 -3 353 -3 352 -31 55 c-26 45 -42 60 -89 85 -53 27 -69 30
-164 32 -65 1 -127 -3 -161 -12z m320 -496 c0 -89 -17 -143 -61 -193 -105
-119 -326 -110 -359 16 -18 63 -4 117 40 159 45 43 98 59 230 69 169 12 150
19 150 -51z"/>
<path d="M14623 8409 c-31 -12 -71 -39 -97 -65 l-44 -44 -6 30 c-19 99 -12 90
-72 90 l-54 0 0 -435 0 -435 64 0 64 0 4 283 c4 217 8 293 20 329 35 106 95
148 219 156 93 5 138 -8 178 -53 45 -51 51 -104 51 -425 l0 -290 66 0 65 0 -3
338 c-3 330 -4 338 -27 389 -30 68 -86 118 -152 137 -76 23 -210 20 -276 -5z"/>
<path d="M15563 8416 c-59 -19 -104 -49 -153 -102 -123 -133 -146 -403 -49
-584 75 -142 222 -212 398 -189 93 11 148 36 211 95 110 103 155 290 115 478
-28 132 -98 229 -202 281 -52 26 -70 29 -168 32 -73 2 -124 -2 -152 -11z m228
-107 c56 -17 104 -62 136 -127 27 -54 28 -64 28 -197 0 -125 -3 -146 -23 -191
-45 -99 -120 -147 -232 -147 -184 0 -269 125 -258 374 9 204 89 297 252 299
32 0 76 -5 97 -11z"/>
<path d="M16000 6940 c-14 -14 -20 -33 -20 -65 0 -56 25 -85 74 -85 25 0 40 7
55 26 45 57 12 144 -55 144 -21 0 -42 -8 -54 -20z"/>
<path d="M15477 6833 c-3 -5 -16 -47 -31 -94 l-26 -86 -60 -26 c-55 -23 -60
-28 -60 -56 l0 -31 60 0 60 0 0 -280 c0 -305 6 -358 50 -418 43 -60 104 -85
204 -84 44 0 93 5 109 11 24 9 27 15 27 59 l0 48 -68 -10 c-60 -8 -74 -7 -108
10 -21 11 -47 34 -59 54 -19 33 -20 52 -20 320 l0 285 128 3 128 3 -3 47 -3
47 -127 3 -128 3 0 99 0 100 -34 0 c-19 0 -37 -3 -39 -7z"/>
<path d="M9413 6631 c-165 -57 -253 -207 -253 -431 0 -255 118 -413 328 -439
81 -10 192 0 247 23 34 15 35 16 35 72 0 49 -2 55 -17 49 -45 -17 -143 -35
-193 -35 -87 0 -130 16 -181 69 -58 60 -80 132 -80 266 0 138 29 226 91 278
35 30 116 57 169 57 34 0 136 -21 172 -35 13 -5 21 5 34 45 11 33 14 55 8 61
-39 39 -269 52 -360 20z"/>
<path d="M10193 6636 c-59 -19 -104 -49 -153 -102 -123 -133 -146 -403 -49
-584 75 -142 222 -212 398 -189 93 11 148 36 211 95 110 103 155 290 115 478
-28 132 -98 229 -202 281 -52 26 -70 29 -168 32 -73 2 -124 -2 -152 -11z m228
-107 c56 -17 104 -62 136 -127 27 -54 28 -64 28 -197 0 -125 -3 -146 -23 -191
-45 -99 -120 -147 -232 -147 -184 0 -269 125 -258 374 9 204 89 297 252 299
32 0 76 -5 97 -11z"/>
<path d="M11233 6629 c-31 -12 -71 -39 -97 -65 l-44 -44 -6 30 c-19 99 -12 90
-72 90 l-54 0 0 -435 0 -435 64 0 64 0 4 283 c4 217 8 293 20 329 35 106 95
148 219 156 93 5 138 -8 178 -53 45 -51 51 -104 51 -425 l0 -290 66 0 65 0 -3
338 c-3 330 -4 338 -27 389 -30 68 -86 118 -152 137 -76 23 -210 20 -276 -5z"/>
<path d="M12085 6636 c-129 -41 -197 -132 -180 -242 13 -92 77 -148 250 -218
198 -80 243 -118 232 -198 -11 -79 -79 -114 -222 -112 -84 1 -156 18 -248 59
-16 7 -18 2 -15 -56 l3 -63 48 -18 c181 -67 453 -25 522 80 61 94 55 212 -16
283 -44 44 -86 67 -209 114 -176 67 -220 100 -220 163 0 49 28 86 76 102 53
18 216 8 288 -17 l58 -21 23 52 23 51 -30 13 c-96 41 -295 56 -383 28z"/>
<path d="M12928 6631 c-63 -25 -102 -55 -148 -112 -49 -63 -77 -136 -90 -242
-27 -221 57 -411 214 -483 105 -48 287 -50 416 -6 l55 19 3 60 3 60 -72 -24
c-98 -33 -226 -41 -303 -19 -103 30 -164 113 -182 249 l-7 47 303 0 303 0 -6
98 c-3 53 -13 117 -22 142 -37 105 -111 182 -206 215 -60 21 -202 19 -261 -4z
m248 -116 c49 -29 89 -99 100 -177 l6 -48 -230 0 -229 0 8 45 c11 59 40 113
81 152 44 43 70 52 152 52 57 1 77 -4 112 -24z"/>
<path d="M13863 6635 c-175 -54 -262 -198 -263 -432 0 -161 30 -252 110 -337
59 -62 119 -92 216 -105 76 -11 193 0 249 23 34 15 35 16 35 72 0 54 -1 56
-22 50 -206 -59 -326 -43 -392 53 -46 66 -59 118 -60 236 -1 173 39 266 137
317 55 29 177 31 255 4 29 -10 54 -16 56 -15 15 21 36 103 29 110 -35 35 -265
51 -350 24z"/>
<path d="M17423 6636 c-59 -19 -104 -49 -153 -102 -123 -133 -146 -403 -49
-584 75 -142 222 -212 398 -189 93 11 148 36 211 95 110 103 155 290 115 478
-28 132 -98 229 -202 281 -52 26 -70 29 -168 32 -73 2 -124 -2 -152 -11z m228
-107 c56 -17 104 -62 136 -127 27 -54 28 -64 28 -197 0 -125 -3 -146 -23 -191
-45 -99 -120 -147 -232 -147 -184 0 -269 125 -258 374 9 204 89 297 252 299
32 0 76 -5 97 -11z"/>
<path d="M14412 6298 l3 -343 26 -56 c47 -99 129 -140 279 -141 106 0 181 26
240 83 23 22 43 39 45 37 2 -2 8 -26 12 -53 l8 -50 53 -3 52 -3 0 435 0 436
-64 0 -65 0 -3 -298 -3 -298 -30 -60 c-26 -50 -38 -63 -87 -87 -47 -24 -69
-29 -130 -29 -118 0 -168 30 -193 116 -12 39 -15 114 -15 353 l0 303 -65 0
-66 0 3 -342z"/>
<path d="M15990 6205 l0 -435 65 0 65 0 0 435 0 435 -65 0 -65 0 0 -435z"/>
<path d="M16264 6623 c3 -10 77 -205 164 -433 l158 -415 78 0 79 0 163 430
c90 237 164 431 164 433 0 2 -32 2 -71 0 l-72 -3 -65 -180 c-35 -99 -95 -268
-132 -374 l-67 -195 -18 60 c-12 44 -201 574 -242 681 -4 9 -27 13 -75 13 -62
0 -69 -2 -64 -17z"/>
<path d="M12010 4290 l0 -720 140 0 140 0 0 720 0 720 -140 0 -140 0 0 -720z"/>
<path d="M12590 4290 l0 -720 139 0 139 0 4 313 c5 340 12 384 64 447 40 47
80 63 156 64 75 1 108 -16 143 -75 19 -32 20 -55 23 -391 l3 -358 139 0 140 0
0 383 c0 321 -3 392 -16 437 -48 161 -171 237 -367 228 -116 -6 -179 -31 -242
-99 -25 -27 -47 -49 -48 -49 -1 0 0 121 2 270 l3 270 -141 0 -141 0 0 -720z"/>
<path d="M16983 4773 c3 -131 9 -253 13 -271 l6 -34 -48 49 c-27 27 -71 60
-99 73 -44 22 -63 25 -160 25 -97 0 -116 -3 -160 -25 -111 -54 -188 -170 -220
-329 -25 -124 -17 -317 19 -427 43 -132 122 -224 225 -260 142 -49 294 -15
384 85 20 23 41 41 45 41 5 0 20 -28 33 -62 l25 -63 107 -3 107 -3 0 721 0
720 -141 0 -141 0 5 -237z m-88 -406 c64 -35 96 -110 102 -240 12 -226 -42
-334 -171 -345 -117 -10 -179 26 -217 126 -17 46 -22 78 -22 167 -1 160 32
250 106 295 47 29 148 27 202 -3z"/>
<path d="M9130 4245 l0 -675 131 0 132 0 -7 453 c-3 248 -8 488 -11 532 -4 56
-2 74 4 60 6 -11 81 -251 167 -532 l157 -513 131 0 132 0 175 533 175 532 -4
-532 -5 -533 137 0 136 0 0 675 0 675 -198 0 -197 0 -169 -515 c-93 -283 -172
-513 -174 -510 -3 3 -76 233 -162 512 l-158 508 -196 3 -196 2 0 -675z"/>
<path d="M11173 4605 c-168 -46 -279 -164 -324 -345 -8 -32 -14 -107 -14 -180
1 -185 33 -277 132 -381 99 -104 216 -144 413 -143 132 0 191 10 283 44 l57
21 0 109 0 109 -81 -30 c-107 -39 -250 -57 -326 -41 -108 22 -177 96 -190 201
l-6 51 332 0 331 0 0 113 c0 169 -30 264 -113 354 -84 91 -194 133 -345 132
-54 0 -121 -7 -149 -14z m224 -196 c48 -18 93 -70 109 -127 25 -86 32 -83
-188 -80 l-193 3 3 30 c10 113 83 185 189 185 28 0 64 -5 80 -11z"/>
<path d="M14120 4604 c-168 -45 -280 -161 -327 -335 -20 -79 -23 -262 -4 -339
19 -79 64 -169 110 -222 112 -127 301 -182 492 -144 193 40 313 155 364 351
18 70 20 250 4 327 -38 180 -166 317 -340 363 -69 19 -228 18 -299 -1z m262
-236 c79 -44 121 -196 99 -359 -20 -151 -72 -218 -176 -227 -112 -9 -174 25
-215 119 -43 101 -38 306 11 400 46 91 180 123 281 67z"/>
<path d="M15473 4602 c-63 -25 -129 -76 -165 -127 -18 -25 -35 -45 -39 -45 -4
0 -15 37 -25 83 l-19 82 -108 3 -107 3 0 -516 0 -515 139 0 140 0 3 308 c3
294 4 309 25 348 48 90 120 127 249 128 l92 1 6 70 c4 39 9 98 12 133 l6 62
-83 -1 c-55 0 -99 -6 -126 -17z"/>
<path d="M17841 4605 c-170 -48 -280 -163 -326 -340 -19 -76 -20 -260 0 -343
63 -265 294 -408 585 -362 88 14 194 67 253 126 169 170 193 526 50 742 -43
64 -130 132 -211 163 -75 29 -269 37 -351 14z m209 -216 c109 -23 155 -112
155 -299 -1 -123 -12 -178 -47 -230 -37 -54 -71 -73 -138 -78 -162 -12 -234
82 -234 308 0 207 58 296 201 309 7 1 35 -4 63 -10z"/>
<path d="M16717 2718 c-7 -18 -26 -67 -41 -108 l-27 -75 -80 -48 -79 -49 0
-59 0 -59 70 0 70 0 0 -287 c0 -345 11 -403 87 -475 56 -54 117 -72 238 -73
101 0 194 14 238 37 14 7 17 24 17 112 l0 104 -52 -14 c-64 -17 -158 -18 -192
-3 -51 24 -56 54 -56 338 l0 261 145 0 145 0 0 105 0 105 -145 0 -145 0 0 110
0 110 -90 0 -90 0 -13 -32z"/>
<path d="M9420 2535 c-129 -37 -209 -110 -230 -211 -22 -105 16 -226 90 -284
21 -16 112 -65 202 -109 197 -94 232 -128 197 -193 -34 -64 -224 -64 -404 2
-33 12 -68 24 -77 27 -16 5 -18 -5 -18 -110 l0 -116 68 -22 c103 -32 263 -45
377 -31 170 21 259 73 311 178 22 46 28 71 28 133 2 175 -51 228 -357 361 -95
41 -147 82 -147 116 0 8 11 26 25 39 22 23 32 25 107 25 68 0 101 -6 181 -34
l99 -34 20 47 c33 77 58 141 58 151 0 5 -44 23 -97 41 -87 28 -113 32 -238 35
-104 3 -154 0 -195 -11z"/>
<path d="M10461 2534 c-158 -42 -270 -161 -317 -335 -27 -100 -25 -284 5 -378
52 -169 168 -279 341 -322 125 -32 388 -11 490 39 l35 17 3 109 c2 101 1 108
-15 101 -167 -69 -327 -91 -432 -59 -89 26 -161 125 -161 221 l0 23 336 0 337
0 -8 120 c-4 66 -13 142 -20 169 -40 152 -145 256 -298 297 -67 18 -227 17
-296 -2z m250 -207 c51 -27 86 -82 95 -151 l7 -46 -197 0 -196 0 0 33 c0 54
49 138 95 164 55 31 137 31 196 0z"/>
<path d="M11503 2535 c-29 -8 -71 -24 -93 -35 -203 -104 -229 -428 -44 -565
l41 -30 -54 -50 c-86 -79 -90 -160 -12 -239 22 -21 38 -40 37 -41 -2 -1 -23
-9 -48 -18 -105 -39 -163 -120 -164 -227 0 -120 74 -210 214 -257 78 -26 394
-26 490 0 160 43 269 130 305 242 25 79 18 195 -16 255 -28 51 -93 104 -147
121 -20 6 -127 15 -237 19 -205 7 -235 13 -255 51 -9 16 -7 27 8 52 18 32 19
32 88 29 209 -10 384 73 444 210 30 68 33 192 7 252 -20 46 -21 46 73 70 l70
18 0 68 0 68 -207 6 c-115 4 -262 8 -328 11 -86 3 -135 0 -172 -10z m244 -175
c49 -30 68 -73 68 -160 0 -128 -46 -184 -150 -184 -104 0 -150 56 -150 184 0
87 15 124 64 157 44 30 122 31 168 3z m78 -880 c84 -14 109 -35 113 -94 3 -43
0 -51 -31 -80 -54 -51 -131 -71 -272 -71 -96 0 -127 4 -152 18 -55 29 -73 56
-73 105 0 38 5 50 35 78 21 19 53 37 78 42 57 13 228 14 302 2z"/>
<path d="M12825 2537 c-66 -22 -99 -43 -144 -92 -24 -26 -46 -44 -49 -40 -4 4
-14 32 -23 63 l-16 57 -106 3 -107 3 0 -516 0 -515 139 0 140 0 3 328 c4 283
7 333 22 374 21 57 71 103 128 119 82 22 147 -5 183 -77 19 -36 20 -62 23
-391 l3 -353 140 0 139 0 0 287 c0 304 8 385 43 448 64 113 228 126 288 22
l24 -42 3 -357 3 -358 144 0 145 0 0 333 c0 464 -13 547 -98 630 -67 65 -120
82 -257 82 -111 0 -124 -2 -176 -28 -31 -15 -75 -48 -98 -72 -23 -25 -45 -45
-49 -45 -4 0 -24 20 -45 44 -21 26 -60 56 -93 72 -49 24 -71 28 -163 31 -69 2
-120 -2 -146 -10z"/>
<path d="M14511 2534 c-158 -42 -270 -161 -317 -335 -27 -100 -25 -284 5 -378
52 -169 168 -279 341 -322 125 -32 388 -11 490 39 l35 17 3 109 c2 101 1 108
-15 101 -167 -69 -327 -91 -432 -59 -89 26 -161 125 -161 221 l0 23 336 0 337
0 -8 120 c-4 66 -13 142 -20 169 -40 152 -145 256 -298 297 -67 18 -227 17
-296 -2z m250 -207 c51 -27 86 -82 95 -151 l7 -46 -197 0 -196 0 0 33 c0 54
49 138 95 164 55 31 137 31 196 0z"/>
<path d="M15793 2530 c-46 -15 -78 -35 -122 -76 -33 -30 -61 -51 -64 -47 -2 4
-12 34 -21 66 l-17 57 -109 0 -110 0 0 -515 0 -515 139 0 138 0 6 308 c6 339
14 389 69 456 59 71 195 85 262 26 55 -49 59 -71 63 -447 l5 -343 140 0 139 0
-3 393 c-4 385 -4 393 -27 451 -30 76 -96 147 -164 177 -75 33 -236 37 -324 9z"/>
<path d="M17703 2535 c-155 -42 -258 -140 -313 -298 -31 -89 -39 -267 -16
-370 35 -157 121 -271 248 -332 174 -84 409 -65 552 44 112 84 173 219 183
401 14 288 -116 493 -354 555 -72 19 -230 18 -300 0z m253 -230 c71 -29 114
-135 114 -282 0 -215 -66 -313 -211 -313 -86 0 -137 31 -174 105 -27 55 -30
70 -34 181 -5 204 38 296 154 325 37 9 109 2 151 -16z"/>
</g>
</svg>
