<svg version="1.1" id="Layer_1" xmlns="http://www.w3.org/2000/svg" xmlns:xlink="http://www.w3.org/1999/xlink" x="0px" y="0px"
	 width="100%" viewBox="0 0 1024 576" enable-background="new 0 0 1024 576" xml:space="preserve">
<path fill="#000000" opacity="1.000000" stroke="none" 
	d="
M380.431885,249.426987 
	C339.656464,290.210236 299.129211,330.740234 258.604492,371.272797 
	C252.606537,377.271912 252.612152,377.277527 246.256561,372.667633 
	C245.935425,372.722870 245.531677,372.679199 245.307388,372.859192 
	C239.602036,377.437347 239.616089,377.430664 234.143875,371.960388 
	C208.220520,346.046112 182.332825,320.095734 156.307571,294.284180 
	C153.206223,291.208282 152.607666,289.337128 156.122894,285.953217 
	C168.004044,274.515869 179.620422,262.796783 191.112549,250.966370 
	C194.239609,247.747284 196.159912,247.421631 199.497009,250.840027 
	C212.994705,264.666626 226.718231,278.276367 240.528397,291.792450 
	C246.078949,297.224823 244.866409,298.590240 251.651749,291.823914 
	C281.264496,262.294189 310.830566,232.717667 340.407928,203.152481 
	C344.949982,198.612305 344.882874,198.651535 349.292908,203.108765 
	C360.541260,214.477600 371.839874,225.796692 383.122772,237.131317 
	C387.900879,241.931335 387.905823,241.926407 383.150604,246.696548 
	C382.327271,247.522476 381.504120,248.348541 380.431885,249.426987 
z"/>
</svg>